<?xml version="1.0" standalone="no"?>
<!DOCTYPE svg PUBLIC "-//W3C//DTD SVG 1.1//EN" "http://www.w3.org/Graphics/SVG/1.1/DTD/svg11.dtd" >
<svg xmlns="http://www.w3.org/2000/svg">
<metadata>
This is a custom SVG webfont generated by Font Squirrel.
Copyright   : Copyright c 20092011 Philippe Cochyhttppecitacomwith Reserved Font Name Pecita
</metadata>
<defs>
<font id="PecitaBook" horiz-adv-x="983" >
<font-face units-per-em="2048" ascent="1638" descent="-410" />
<missing-glyph horiz-adv-x="500" />
<glyph unicode=" " />
<glyph unicode="!" horiz-adv-x="737" d="M315 1270q0 61 62 61q49 0 61 -61q29 -145 39 -211q23 -143 23 -547q0 -61 -61.5 -61t-61.5 61q0 403 -19 522q-4 27 -41 211q-2 11 -2 25zM377 82q0 61 74 61q82 0 81 -82q0 -61 -61 -61q-33 0 -63.5 25.5t-30.5 56.5z" />
<glyph unicode="&#x22;" horiz-adv-x="614" d="M82 1348q0 61 61.5 61t61.5 -61q0 -231 16 -297l160 157q61 61 90 62q61 0 61 -62q0 -35 -28 -192q-35 -193 -35 -258q0 -61 -61.5 -61.5t-61.5 61.5q0 86 35 278l-90 -94q-61 -61 -107 -61q-43 0 -67 61q-6 14 -13.5 57t-14.5 139.5t-7 209.5z" />
<glyph unicode="#" d="M82 225q0 49 61 62q61 10 82 14l94 152q-39 4 -98 10t-78 8q-61 6 -61 61q0 61 61 62q20 0 62 -4q123 -14 186 -19q6 10 33 64q31 61 68 61q61 0 61 -61q0 -14 -27 -68h76q10 0 41 2h29q23 41 55 107q31 61 72 61q61 0 61 -61q0 -20 -18 -58q-14 -27 -23 -45h21 q61 0 61 -61t-61 -61q-4 0 -45 -1t-45 -1l-74 -130l123 -12q61 -8 61 -61q0 -61 -61 -62q-6 0 -88 8.5t-101 8.5l-53 -99q-31 -61 -65 -61q-61 0 -62 61q0 20 21 62l20 41q-55 0 -166 -15q-51 -92 -51 -129q0 -61 -61.5 -61t-61.5 61q0 45 23 103q-72 0 -72 61zM385 322 q49 6 86 6h68l63 116h-143z" />
<glyph unicode="$" d="M82 307q0 61 61 62q12 0 33 -7q106 -33 234 -57q0 143 -11 234q-317 49 -317 239q0 172 250 236q-2 10 -10.5 41.5t-12.5 54.5q-2 10 -2 29q0 61 62 61q49 0 61 -61q4 -20 11.5 -53t11.5 -54q197 33 325 33q66 0 66 -61.5t-66 -61.5q-115 0 -299 -31q20 -82 39 -270 q170 -41 268 -111q115 -82 115 -223q0 -82 -51 -133t-133 -51q-31 0 -185 31v-93q0 -61 -61 -61t-61 61v117q-123 25 -267 68q-61 18 -61 61zM205 778q0 -90 184 -114q-23 186 -33 229q-151 -33 -151 -115zM526 510q6 -78 6 -231q31 -6 78 -14.5t74 -13.5t33 -5q61 0 61 61 q0 76 -61 123q-62 45 -191 80z" />
<glyph unicode="%" horiz-adv-x="1802" d="M94 868q0 104 55.5 167t157.5 104q20 8 41 8q61 0 62 -62q0 -37 -62 -61q-66 -27 -98.5 -62.5t-32.5 -93.5q0 -31 19.5 -50t50.5 -19q137 0 225 39q61 27 61 63q0 4 -2 9t-7 10l-10 8q-5 4 -13 8l-15 7q-6 3 -17 9t-17 9q-61 31 -62 63q0 61 62 61q25 0 61 -18 q76 -37 109.5 -73t33.5 -93q0 -113 -135 -174q-109 -51 -274 -51q-82 0 -137.5 55t-55.5 137zM471 61q0 23 29 70l368 614q92 154 252 394q41 61 68 61q61 0 61 -61q0 -25 -30 -70q-139 -209 -250 -393l-369 -615q-37 -61 -68 -61q-61 0 -61 61zM1229 328q0 82 61.5 143 t143.5 61q98 0 192 -78.5t94 -170.5q0 -94 -82 -158t-184 -64q-84 0 -149.5 61.5t-65.5 143.5q-10 27 -10 62zM1352 328q0 -41 10 -62q0 -33 28.5 -57.5t63.5 -24.5q51 0 97 28t46 71t-57 85t-106 42q-33 0 -57.5 -24.5t-24.5 -57.5z" />
<glyph unicode="&#x26;" d="M82 168q0 131 176 264q-115 190 -115 326q0 104 43 221q37 98 95.5 159.5t132.5 61.5q131 0 176 -184q25 -100 24 -258q0 -188 -186 -352q78 -119 143 -189q47 31 110.5 122t94.5 152.5t64 61.5q61 0 61 -61q0 -27 -14 -56q-31 -59 -103.5 -159.5t-128.5 -143.5 q59 -59 164 -129q61 -41 62 -65q0 -61 -62 -62q-29 0 -71 29q-123 82 -197 155q-33 -23 -50.5 -32t-64.5 -19t-112 -10q-92 0 -167 45t-75 123zM205 168q0 -18 44 -31.5t75 -13.5q78 0 143 27q-88 104 -137 182q-125 -94 -125 -164zM266 756q0 -98 90 -248q68 59 102 115.5 t34 134.5q0 147 -19 229q-20 90 -59 90q-63 0 -113 -141q-35 -94 -35 -180z" />
<glyph unicode="'" horiz-adv-x="532" d="M184 1167q0 78 21 181q6 35 19.5 48t41.5 13q61 0 62 -61l-2 -21q-18 -92 -19 -160q0 -109 43 -194q18 -37 19 -55q0 -61 -62 -62q-37 0 -67 62q-56 110 -56 249z" />
<glyph unicode="(" d="M164 303q0 483 280 1045q31 61 68 61q61 0 61 -61q0 -18 -8 -35q-279 -557 -278 -1010q0 -229 70.5 -419.5t205.5 -395.5q31 -45 31 -66q0 -61 -62 -61q-31 0 -71 61q-141 211 -219 421t-78 460z" />
<glyph unicode=")" d="M287 1348q0 61 61 61q18 0 60 -20q184 -92 297.5 -372t113.5 -648q0 -207 -34.5 -471.5t-84.5 -462.5q-18 -74 -65 -74q-61 0 -62 61q0 18 9 52q115 479 114 895q0 317 -93 575t-255 338q-61 31 -61 66z" />
<glyph unicode="*" d="M184 368.5q0 61.5 62 61.5h170q-29 41 -49 82q-18 37 -19 61q0 61 62 62q33 0 63.5 -61.5t77.5 -118.5l98 98q57 57 88 57q61 0 62 -61q0 -20 -31 -51l-68 -68h37q61 0 61.5 -61.5t-61.5 -61.5h-61q37 -25 49 -37t12 -32q0 -61 -61 -62q-23 0 -72 33q-43 29 -69 55 l-80 -80q-61 -61 -86 -61q-61 0 -62 61q0 27 62 88l34 35h-157q-62 0 -62 61.5z" />
<glyph unicode="+" d="M205 389.5q0 61.5 61 61.5q80 0 191 16q-6 90 -6 209q0 61 61 61t61 -61q0 -106 7 -191q74 12 108 21q25 6 29 6q61 0 61 -61q0 -45 -61 -62q-27 -8 -129 -27q12 -102 22 -145q4 -16 4 -29q0 -61 -61 -61q-45 0 -61 61q-14 47 -25 156q-111 -16 -201 -16q-61 0 -61 61.5z " />
<glyph unicode="," horiz-adv-x="532" d="M205 -430q0 14 8 31q49 90 78 186q37 119 37 213q0 61 61.5 61t61.5 -61q0 -109 -43 -250q-29 -96 -72 -180q-31 -61 -70 -62q-61 1 -61 62z" />
<glyph unicode="-" d="M164 346q0 43 61 64q123 41 328 41q61 0 246 -21q29 -4 45 -20.5t16 -40.5q0 -61 -61 -62q-4 0 -41 4q-147 16 -205 17q-184 0 -285 -35q-18 -6 -43 -6q-61 0 -61 59z" />
<glyph unicode="." horiz-adv-x="819" d="M328 94q0 61 61 62q33 0 68 -30t35 -65q0 -29 -28 -45t-58 -16q-35 0 -56.5 29.5t-21.5 64.5z" />
<glyph unicode="/" horiz-adv-x="655" d="M82 -205q0 2 2 17q14 104 84 311q295 881 362 1225q12 61 66 61q59 0 59 -61q0 -8 -4 -29q-66 -332 -366 -1233q-68 -201 -80 -291q-8 -61 -62 -61q-61 0 -61 61z" />
<glyph unicode="0" d="M66 473q0 123 75.5 239.5t184.5 190.5q86 57 163 58q0 23 23 30q55 20 156 21q106 0 178 -99.5t72 -216.5q0 -221 -163 -366.5t-395 -145.5q-123 0 -208.5 83t-85.5 206zM188 475q0 -74 49.5 -121t122.5 -47q182 0 308.5 108.5t126.5 280.5q0 66 -37 129.5t-90 63.5 q-78 0 -107 -12q0 -18 -15.5 -27.5t-29.5 -9.5q-68 0 -129 -41q-82 -53 -140.5 -141.5t-58.5 -182.5z" />
<glyph unicode="1" d="M82 139q0 29 61 74q172 129 314 301q139 168 226 340t87 285q0 61 61 61q43 0 62 -59q8 -25 8 -101q0 -59 -20.5 -344.5t-20.5 -347.5q0 -168 19 -260q2 -10 2 -27q0 -61 -62 -61q-49 0 -61 61q-20 102 -21 287q0 39 25 395q-96 -170 -211 -309q-139 -170 -336 -317 q-47 -35 -72 -35q-61 0 -61 57z" />
<glyph unicode="2" d="M225 246q0 213 187 491q141 213 141 254q0 86 -61 86q-33 0 -68 -22.5t-35 -50.5q0 -4 4 -20.5t4 -20.5q0 -61 -61 -62q-33 0 -51.5 33t-18.5 70q0 80 70 138t156 58q78 0 131 -52t53 -157q0 -39 -26.5 -96t-50.5 -95t-81 -124q-170 -262 -170 -430q0 -55 86 -86 q98 -37 262 -37q61 0 61.5 -61.5t-61.5 -61.5q-178 0 -303 47q-168 64 -168 199z" />
<glyph unicode="3" d="M164 61q0 55 61 62q147 16 262 49q209 63 209 156q0 37 -100 118q-53 43 -80 68t-56.5 71t-29.5 91q0 59 34 106t93 99q4 4 16.5 14t16.5 14t14 13.5t14.5 14.5t12.5 13t11 13.5t7 12.5t5 14t1 14q0 74 -143 73q-119 0 -221 -41q-31 -12 -45 -12q-61 0 -62 61q0 41 62 66 q123 49 266 49q113 0 189.5 -50t76.5 -146q0 -43 -24.5 -87.5t-48 -67t-66.5 -61.5q-86 -74 -86 -112q0 -8 3 -17.5t11 -19.5t14.5 -17.5t19.5 -19.5t21.5 -18t27 -21.5t24.5 -21.5q145 -119 145 -213q0 -182 -295 -273q-133 -41 -272 -53q-16 -2 -27 -2q-61 0 -61 61z" />
<glyph unicode="4" d="M164 709q0 193 119 430q31 61 65 61q61 0 62 -61q0 -14 -17 -47q-106 -213 -106 -379q0 -86 52 -153.5t132 -67.5q66 0 123 30q18 10 48 30.5t50.5 31t44.5 10.5q61 0 62 -62q0 -12 -25 -139q-16 -82 -16 -229q0 -20 30.5 -49t30.5 -54q0 -61 -61 -61q-41 0 -82 50 t-41 114q0 152 20 254q-68 -49 -184 -49q-127 0 -217 103.5t-90 236.5z" />
<glyph unicode="5" d="M82 162q0 61 61 61q20 0 66 -30q100 -70 180 -70q225 0 225 131q0 51 -31.5 116.5t-63.5 107.5t-79 97.5t-51 59.5q-2 4 -25.5 32.5t-37 47t-36 52.5t-35.5 59.5t-23.5 57t-10.5 58.5q0 70 25 143q20 61 61 62q61 0 62 -62q0 -14 -7 -32q-18 -55 -18 -111q0 -18 9 -40.5 t29.5 -52.5t35 -49.5t39 -50t28.5 -36.5q4 -4 41 -48t67 -84t66.5 -97.5t57 -118t20.5 -113.5q0 -94 -85 -173t-263 -79q-121 0 -246 86q-61 43 -61 76zM410 1024q0 41 61 72q135 68 342 102q12 2 27 2q61 0 61 -61q0 -51 -61 -62q-197 -33 -328 -98q-33 -16 -41 -16 q-61 0 -61 61z" />
<glyph unicode="6" d="M82 246q0 139 55.5 270t158.5 248t215 212t263 200q33 25 66 24q61 0 61 -61q0 -25 -61 -68q-106 -74 -181 -132t-167.5 -144t-149.5 -166t-97 -180.5t-40 -202.5q0 -45 39 -84t84 -39q121 0 234.5 70.5t113.5 175.5q0 49 -43 75.5t-101 26.5q-33 0 -71 -29 q-8 -6 -22.5 -21t-27 -23.5t-22.5 -8.5q-61 0 -61 62q0 45 61 92q68 51 143 51q109 0 188 -62.5t79 -162.5q0 -156 -148.5 -262.5t-322.5 -106.5q-94 0 -170 76t-76 170z" />
<glyph unicode="7" d="M82 1004q0 86 92 141t195 55q182 0 272 -123q76 -102 76 -278q0 -94 -33 -258q104 12 156 12q61 0 61 -61.5t-61.5 -61.5t-184.5 -16q-94 -328 -102 -353q-20 -61 -61 -61q-61 0 -62 61q0 18 6 37q2 6 86 295q-100 -16 -233 -43l-10 -2h-13q-61 0 -61 62q0 49 61 61 q141 29 287 51q41 178 41 277q0 133 -49 202q-53 76 -176 76q-39 0 -101.5 -23.5t-62.5 -49.5q0 -20 30.5 -49t30.5 -54q0 -27 -16.5 -44t-44.5 -17q-37 0 -80 55.5t-43 108.5z" />
<glyph unicode="8" d="M184 246q0 135 168 344q-127 164 -151 221q-16 39 -17 70q0 61 61.5 61t61.5 -59q0 -41 127 -199q18 20 88 93t94 104q59 74 60 102q0 43 -37 68.5t-86 25.5q-51 0 -118.5 -45t-86.5 -45q-61 0 -61 62q0 39 93 95t173 56q102 0 174 -60.5t72 -156.5q0 -68 -90 -180 q-23 -29 -197 -219q205 -262 205 -400q0 -82 -51.5 -133t-133.5 -51q-348 0 -348 246zM307 246q0 -74 60.5 -98.5t164.5 -24.5q61 0 62 61q0 94 -166 308q-121 -152 -121 -246z" />
<glyph unicode="9" d="M164 840q0 139 89 249.5t218 110.5q59 0 111.5 -38t52.5 -77q0 -61 -62 -61q-20 0 -48.5 26.5t-53.5 26.5q-80 0 -132 -74.5t-52 -162.5q0 -123 123 -123q141 0 221 59q45 33 45 84q0 27 -12 64q-8 25 -9 39q0 61 62 61q43 0 63 -61q16 -51 25 -105q14 -100 14 -182 q0 -254 -153 -486q-43 -66 -97 -129q-51 -61 -77 -61q-61 0 -62 61q0 25 45 78q61 78 88 119q133 203 133 418q-111 -82 -286 -82q-111 0 -178.5 67.5t-67.5 178.5z" />
<glyph unicode=":" horiz-adv-x="737" d="M324 549q0 61 61 61q33 0 67.5 -29.5t34.5 -64.5q0 -29 -27.5 -45t-58.5 -16q-35 0 -56 29.5t-21 64.5zM369 94q0 61 61 62q33 0 67.5 -30t34.5 -65q0 -29 -27.5 -45t-58.5 -16q-35 0 -56 29.5t-21 64.5z" />
<glyph unicode=";" horiz-adv-x="737" d="M287 -430q0 14 8 31q49 90 78 186q37 119 37 213q0 61 61 61t61 -61q0 -109 -43 -250q-29 -96 -71 -180q-31 -61 -70 -62q-61 1 -61 62zM328 545q0 61 61 61q33 0 68 -29.5t35 -64.5q0 -29 -28 -45t-58 -16q-35 0 -56.5 29.5t-21.5 64.5z" />
<glyph unicode="&#x3c;" d="M123 471q0 88 57 145l527 537q47 47 71 47q61 0 62 -61q0 -27 -41 -68l-529 -539q-25 -25 -24 -61q0 -29 41 -41q123 -41 193.5 -67.5t163.5 -81t163 -123.5q33 -31 33 -56q0 -61 -62 -61q-31 0 -55 25q-66 66 -151 114.5t-144 70t-195 66.5q-47 14 -78.5 55.5 t-31.5 98.5z" />
<glyph unicode="=" d="M143 598q0 49 58 61q6 2 60 16l109 26q54 13 129.5 24.5t135.5 11.5h164q61 0 61 -61.5t-61 -61.5h-152q-55 0 -123.5 -10t-117.5 -22l-99 -25l-57 -14q-43 -6 -45 -6q-62 0 -62 61zM184 328q0 53 62 61q18 4 249.5 28.5t249.5 26.5q41 6 54 7q61 0 61 -62q0 -51 -61 -61 q-20 -4 -250 -29t-250 -27q-49 -6 -53 -6q-25 0 -43.5 16.5t-18.5 45.5z" />
<glyph unicode="&#x3e;" d="M82 1139q0 61 57 61q18 0 58 -14q242 -90 389 -160q143 -68 221 -125q94 -68 94 -164q0 -84 -67 -141q-260 -223 -494 -535q-45 -61 -74 -61q-61 0 -61 61q0 27 39 78q229 307 493 533q41 35 41 65.5t-41 61.5q-78 55 -205 114q-147 70 -389 160q-61 23 -61 66z" />
<glyph unicode="?" horiz-adv-x="819" d="M205 1180q0 96 73.5 162.5t172.5 66.5q115 0 200.5 -85t85.5 -198q0 -82 -37 -192q-20 -61 -104 -222t-104 -261q-12 -61 -62 -62q-61 0 -61 62q0 14 2 24q23 115 109.5 282t105.5 220q29 86 28 149q0 61 -51 110.5t-112 49.5q-47 0 -85 -30.5t-38 -75.5q0 -53 22 -82 q39 -49 39 -74q0 -61 -61 -61q-25 0 -74 61.5t-49 155.5zM369 94q0 61 61 62q33 0 67.5 -30t34.5 -65q0 -29 -27.5 -45t-58.5 -16q-35 0 -56 29.5t-21 64.5z" />
<glyph unicode="@" horiz-adv-x="1228" d="M82 184q0 389 191.5 604.5t566.5 215.5q131 0 219 -96.5t88 -231.5q0 -154 -111.5 -314.5t-249.5 -160.5q-84 0 -112 45q-90 -123 -182 -123q-68 0 -116 46t-48 138q0 115 59 203t137 88q113 0 162 -123q39 80 76 201q18 61 61 61q61 0 62 -61q0 -16 -6 -39 q-35 -129 -86 -223q-8 -14 -45 -66q12 -25 38 -24q74 0 156 116.5t82 235.5q0 86 -51 145.5t-133 59.5q-322 0 -478.5 -180.5t-156.5 -516.5q0 -143 49 -214.5t176 -71.5q41 0 86 7t83 18t82 29.5t74.5 33t70.5 37t59.5 34t50.5 30.5t35 22q20 14 53 14q61 0 61 -62 q0 -31 -53 -61q-4 -2 -33.5 -20.5t-43 -26.5t-48.5 -28.5t-56.5 -31t-59 -29t-67.5 -28.5t-69 -23.5t-73.5 -20.5t-74.5 -12t-77 -5q-348 -1 -348 409zM451 307q0 -61 41 -61q29 0 116 116q-12 16 -26.5 47t-26.5 48.5t-31 17.5q-23 0 -48 -55.5t-25 -112.5z" />
<glyph unicode="A" d="M82 61l4 29q35 143 85 394t75 347q47 186 100 277.5t146 91.5q68 0 119 -48t84.5 -138t53 -186.5t33.5 -223.5q63 8 86 10h13q61 0 61 -61q0 -53 -61 -61q-37 -4 -86 -13q25 -250 24 -295q0 -82 -51 -133t-133 -51q-88 0 -167 114.5t-79 213.5q0 182 273 252 q-59 498 -170 497q-57 0 -125 -274q-27 -104 -80.5 -363.5t-81.5 -378.5q-16 -61 -62 -61q-61 0 -61 61zM512 328q0 -41 44 -123t79 -82q61 0 61 61q0 45 -22 271q-162 -45 -162 -127z" />
<glyph unicode="B" d="M82 655q0 88 15.5 177.5t47 175.5t90 139t134.5 53q82 0 133 -51t51 -133q0 -66 -30.5 -191t-30.5 -170q0 -49 135 -67q123 -18 198.5 -59.5t75.5 -135.5q0 -158 -142.5 -275.5t-307.5 -117.5q-100 0 -185 66q-61 47 -61 77q0 61 61 62q23 0 78 -43q49 -39 107 -39 q117 0 222 82t105 188q0 53 -166 72q-244 27 -243 190q0 66 30.5 191t30.5 170q0 61 -61 61q-43 0 -77 -47t-51.5 -118.5t-26.5 -137t-9 -119.5q0 -131 37 -278q4 -16 4 -29q0 -61 -62 -61q-45 0 -61 61q-41 164 -41 307z" />
<glyph unicode="C" horiz-adv-x="819" d="M82 410q0 336 143.5 563t327.5 227q66 0 123 -31q61 -35 61 -71q0 -61 -61 -62q-18 0 -54 20.5t-69 20.5q-133 0 -240.5 -193.5t-107.5 -473.5q0 -127 80 -207t207 -80q78 0 134 6t76.5 12t44 16.5t27.5 12.5l25 8q18 6 24 6q61 0 62 -61q0 -45 -43 -60l-19 -6 q-2 0 -19.5 -8t-40 -15t-57 -15.5t-91 -13.5t-123.5 -5q-176 0 -293 117t-117 293z" />
<glyph unicode="D" d="M82 635q0 326 88 442q92 123 301 123q166 0 298 -109.5t132 -267.5q0 -111 -40 -206t-115.5 -173.5t-149.5 -138t-176.5 -134.5t-157.5 -126q-49 -45 -78 -45q-61 0 -61 61q0 25 59.5 78.5t154.5 124t163.5 123.5t137.5 120.5t104.5 145.5t35.5 166q0 106 -96 182 t-211 76q-150 0 -205 -73q-61 -82 -61 -369q0 -252 16 -318q4 -25 4 -30q0 -61 -61 -62q-31 0 -43 13.5t-21 48.5q-18 74 -18 348z" />
<glyph unicode="E" d="M82 328q0 74 55.5 124t147.5 97q66 33 95.5 55.5t29.5 50.5q0 18 -42 52t-91.5 69t-91.5 91.5t-42 115.5q0 150 267 203q72 14 184 14q43 0 83 -20.5t40 -53.5q0 -61 -62 -61q-8 0 -30.5 6t-30.5 6q-96 0 -158 -12q-170 -35 -170 -82q0 -37 42 -76t91.5 -68.5t91 -78.5 t41.5 -105q0 -74 -49 -121t-139 -92q-139 -70 -139 -114q0 -68 99 -136.5t228 -68.5q264 0 406 47l25 8q18 6 24 6q61 0 62 -61q0 -45 -43 -60l-19 -6q-172 -57 -455 -57q-178 0 -314 103.5t-136 224.5z" />
<glyph unicode="F" d="M82 860q0 96 62.5 167t165 106.5t209 51t218.5 15.5q127 0 185 -29q61 -31 61 -65q0 -61 -61 -62q-20 0 -53 16.5t-132 16.5q-78 0 -159.5 -9t-171 -31.5t-145.5 -67.5t-56 -109q0 -397 119 -635q-2 92 -9.5 313.5t-7.5 280.5q0 61 61.5 61.5t61.5 -61.5q0 -76 2 -129 q43 -14 100 -14q78 0 185 16q33 4 41 4q61 0 61 -61q0 -25 -18.5 -41t-42.5 -21q-156 -20 -226 -20q-45 0 -96 10q16 -498 17 -502q0 -61 -64 -61q-35 0 -96 61q-104 104 -157.5 329.5t-53.5 469.5z" />
<glyph unicode="G" d="M82 451q0 174 58.5 321.5t149.5 237.5t193.5 140t198.5 50q82 0 150.5 -52t68.5 -153q0 -78 -31 -139q-14 -29 -35.5 -45t-35.5 -16q-25 0 -43.5 16t-18.5 45l17 41q25 49 24 98q0 41 -28.5 61.5t-67.5 20.5q-49 0 -109.5 -21.5t-126 -71.5t-119 -119.5t-88 -178 t-34.5 -235.5q0 -147 83 -237.5t204 -90.5q123 0 122 123q0 33 -31.5 54.5t-70.5 32.5t-70.5 46t-31.5 92q0 35 13 50.5t48 27.5q86 25 205 24q72 0 164 -10q29 -2 45 -19.5t16 -41.5q0 -61 -61 -62q-4 0 -41 4q-55 6 -123 7q-53 0 -111 -9q2 -2 26.5 -12t34 -15t31 -18.5 t31.5 -26t23.5 -30.5t19.5 -42t6 -52q0 -111 -67.5 -178.5t-177.5 -67.5q-160 0 -285 120t-125 331z" />
<glyph unicode="H" d="M82 328q0 92 51 146t162 106q-90 328 -90 559q0 61 61.5 61t61.5 -61q0 -217 82 -510q158 72 242.5 170t84.5 286q0 61 61.5 61.5t61.5 -61.5q0 -106 20.5 -332.5t20.5 -342.5q0 -164 -20 -287q-4 -27 -21.5 -44.5t-40.5 -17.5q-61 0 -61 62l2 18q18 111 18 269 q0 106 -20 327q-94 -131 -314 -227q68 -233 68 -326q0 -82 -51 -133t-133 -51q-98 0 -172 108.5t-74 219.5zM205 328q0 -53 40 -129t83 -76q61 0 61 61q0 80 -57 277q-66 -31 -96.5 -59.5t-30.5 -73.5z" />
<glyph unicode="I" horiz-adv-x="1105" d="M82 184q0 61 61 62q25 0 86.5 -61.5t180.5 -61.5q264 0 522 129q45 23 72 22q61 0 61 -61q0 -29 -61 -59q-164 -82 -295 -118t-299 -36t-267 98q-61 61 -61 86zM82 819q0 123 111.5 213t256 129t287.5 39q72 0 144 -10q61 -8 61 -64q0 -61 -61 -61l-13 2q-72 10 -131 10 q-72 0 -158.5 -16.5t-173 -46t-143.5 -80.5t-57 -115q0 -47 41 -115.5t41 -89.5q0 -61 -62 -61q-39 0 -91 91t-52 175zM451 901q0 61 61 62q41 0 61 -62q41 -123 41 -389q0 -143 -20 -246q-12 -61 -62 -61q-61 0 -61 61q0 10 2 21q18 92 19 225q0 254 -33 352q-8 25 -8 37z " />
<glyph unicode="J" d="M82 205q0 59 52 132t91 73q61 0 62 -62q0 -25 -41 -71t-41 -72q0 -41 69.5 -61.5t135.5 -20.5q76 0 155.5 17.5t146 61.5t66.5 105q0 66 -8 164q-4 29 -12 88t-10 88q-10 96 -11 193q0 176 41 299q20 61 62 61q61 0 61 -61q0 -18 -6 -37q-35 -104 -35 -262q0 -90 10 -178 q2 -31 10.5 -90.5t12.5 -92.5q8 -68 8 -172q0 -147 -152.5 -227t-338.5 -80q-127 0 -227.5 51.5t-100.5 153.5z" />
<glyph unicode="K" d="M82 348q0 109 10 330t10 326q0 61 61.5 61t61.5 -61q0 -109 -10 -330t-10 -326q0 -45 17.5 -114.5t43.5 -69.5q39 0 113 168q4 10 6 14q274 618 453 797q57 57 84 57q61 0 61 -61q0 -25 -57 -82q-106 -106 -250 -383q29 -117 91 -279t120 -276q14 -29 14 -58 q0 -61 -61 -61q-33 0 -64 61q-96 199 -180 451l-100 -217q-29 -66 -41.5 -90.5t-44 -73.5t-66.5 -69.5t-78 -20.5q-92 0 -138 95t-46 212z" />
<glyph unicode="L" horiz-adv-x="819" d="M82 225q0 139 35 401.5t35 397.5q0 25 -4.5 68t-4.5 45q0 63 62 63q55 0 61 -61q8 -49 8 -115q0 -139 -34.5 -401.5t-34.5 -397.5q0 -123 123 -123q244 0 446 68l25 8q18 6 24 6q61 0 62 -61q0 -45 -43 -60l-19 -6q-131 -41 -235 -57q-123 -20 -260 -20q-61 0 -109 20 q-137 55 -137 225z" />
<glyph unicode="M" horiz-adv-x="1351" d="M82 59v15q45 309 121 688q88 438 268 438q70 0 117 -55t47 -129q0 -61 -20.5 -354t-20.5 -354.5t41 -61.5q27 0 61 104q25 74 84.5 299t87.5 314q61 184 176 184q70 0 117 -55.5t47 -128.5q0 -102 -10 -327.5t-10 -307.5q0 -164 61 -164q39 0 58 6l24 8q18 6 25 6 q61 0 61 -61q0 -45 -43 -60l-18 -6q-49 -16 -107 -16q-90 0 -137 76t-47 211q0 78 10 297t10 338q0 61 -41 61q-25 0 -59 -102q-25 -74 -85 -300.5t-89 -314.5q-61 -184 -176 -184q-70 0 -117 55t-47 129q0 61 20.5 354t20.5 354.5t-41 61.5q-31 0 -76 -101.5t-71 -238.5 q-74 -369 -119 -678q-4 -25 -20.5 -42t-41.5 -17q-61 0 -61 59z" />
<glyph unicode="N" horiz-adv-x="1024" d="M82 205q0 147 23.5 418.5t33.5 318.5q35 184 168 184q72 0 120 -49t65 -135q2 -10 13 -96t26.5 -184.5t34 -200t43 -169t46.5 -67.5q41 0 79 186.5t44 325.5q12 350 37 402q31 61 66 61q61 0 61 -61q0 -16 -16 -49q-12 -25 -25 -357q-4 -100 -28.5 -249.5t-63.5 -258.5 q-20 -57 -62 -90t-92 -33q-100 0 -151 123q-37 88 -65.5 242t-46 299t-19.5 152q-16 86 -66 86q-31 0 -47 -82q-10 -47 -32.5 -308.5t-22.5 -408.5q0 -53 14 -111q6 -25 6 -33q0 -61 -61 -61q-45 0 -62 61q-20 83 -20 144z" />
<glyph unicode="O" horiz-adv-x="1146" d="M82 451q0 207 75.5 326.5t180.5 140.5q20 4 31 4q61 0 61 -62q0 -49 -61 -61q-84 -16 -124 -117.5t-40 -230.5q0 -135 96 -231.5t231 -96.5q154 0 282 180t128 352q0 422 -266 422q-100 0 -162 -35q-45 -27 -63 -26q-61 0 -62 61q0 33 62 70q33 20 100 36.5t125 16.5 q139 0 229 -78t125 -194.5t35 -272.5q0 -143 -71.5 -294.5t-197.5 -256t-264 -104.5q-186 0 -318 132.5t-132 318.5z" />
<glyph unicode="P" d="M82 799q0 178 153.5 289.5t350.5 111.5q137 0 226 -74.5t89 -203.5q0 -80 -51 -143.5t-136 -103.5t-153.5 -61.5t-144.5 -35.5q-20 -4 -27 -5q-61 0 -61 62q0 49 61 61q92 18 171 44t148.5 75t69.5 107q0 156 -192 155q-145 0 -263 -76.5t-118 -201.5q0 -150 37 -297 q18 -74 34.5 -156t31 -162t18.5 -100q2 -10 2 -23q0 -61 -62 -61q-49 0 -61 61q-4 20 -17.5 94t-29 155t-35.5 161q-41 164 -41 328z" />
<glyph unicode="Q" horiz-adv-x="1351" d="M82 614q0 252 144.5 388.5t379.5 136.5q100 61 213 61q205 0 328 -128t123 -335q0 -205 -133 -385t-353 -301q0 -18 5.5 -35.5t15.5 -37t17 -30.5t21.5 -31.5t18.5 -25.5q18 -27 19 -51q0 -61 -62 -61q-33 0 -61 45q-86 131 -94 192q-59 -16 -152 -16q-150 0 -250 90 t-140 223t-40 301zM205 614q0 -209 71.5 -350t235.5 -141q96 0 150 24q0 35 -5.5 69t-11.5 60.5t-18.5 52t-22.5 43t-25.5 36t-25.5 30t-26.5 24.5t-23.5 18t-20.5 15.5t-15.5 10.5q-119 84 -119 231q0 115 121 264l-23 -8q-23 -8 -37 -14t-41.5 -22.5t-47 -34t-43 -48 t-38 -65.5t-24.5 -86.5t-10 -108.5zM471 737q0 -37 20.5 -74.5t45.5 -56.5q2 -2 18 -12t27 -19l30 -24q20 -16 36 -33.5t35 -42t33.5 -53.5t29 -62.5t23.5 -76.5t13 -90q137 74 251 225t114 319q0 156 -88 248t-240 92q0 -61 -61 -61h-103q-184 -168 -184 -279z" />
<glyph unicode="R" horiz-adv-x="1105" d="M82 532q0 268 162 468t411 200q168 0 268.5 -82t100.5 -237q0 -348 -451 -349q76 -49 168 -114q137 -98 232 -211q51 -61 51 -84q0 -61 -61 -62q-27 0 -80 64q-86 102 -211 192q-119 84 -303 199q-61 39 -62 78q0 61 62 61h204q170 0 249 49.5t79 176.5q0 197 -246 196 q-199 0 -324.5 -163.5t-125.5 -381.5q0 -260 45 -440q4 -16 4 -31q0 -61 -61 -61q-45 0 -62 61q-49 197 -49 471z" />
<glyph unicode="S" d="M82 61.5q0 61.5 61 61.5q78 0 189 4q131 6 217 18.5t141 32t71.5 35.5t16.5 33q0 43 -176 102q-160 55 -221 80q-299 125 -299 379q0 166 143.5 279.5t343.5 113.5q111 0 185.5 -65.5t74.5 -167.5q0 -82 -84 -166q-59 -59 -86 -60q-61 0 -61 62q0 27 61 88q47 47 48 76 q0 49 -38 79.5t-98 30.5q-152 0 -259 -76.5t-107 -197.5q0 -96 60.5 -157.5t166.5 -106.5q66 -27 207 -74q129 -45 195.5 -92t66.5 -127q0 -172 -334 -221q-90 -14 -227 -21q-119 -4 -197 -4q-61 0 -61 61.5z" />
<glyph unicode="T" d="M82 1138.5q0 61.5 61 61.5q401 0 779 -94q61 -16 61 -82q0 -33 -16.5 -57.5t-44.5 -24.5q-180 0 -295 -131t-115 -319q0 -49 20.5 -211t20.5 -220q0 -61 -61.5 -61t-61.5 61q0 49 -20.5 211t-20.5 220q0 182 92 327.5t236 204.5q-307 53 -574 53q-61 0 -61 61.5z" />
<glyph unicode="U" d="M82 614q0 211 41 422q6 29 24.5 45.5t36.5 16.5q61 0 62 -62q0 -6 -3 -20.5t-3 -18.5q-35 -172 -35 -383q0 -82 2 -138t13 -129t29.5 -119t55.5 -77.5t88 -31.5q113 0 203 119.5t136 289.5t46 340q0 111 -35 248q0 2 -1 10.5t-1 12.5q0 29 17.5 45t38.5 16q51 0 67 -61 q37 -152 37 -271q0 -139 -32.5 -287.5t-92 -280.5t-160 -216t-223.5 -84q-100 0 -166.5 53t-96.5 153.5t-39 191.5t-9 216z" />
<glyph unicode="V" d="M82 1010v6q0 61 61 61q55 0 62 -61q20 -203 94 -506q45 -190 84 -295q2 -4 5 -13t5 -14.5t5 -14.5t5.5 -13t6.5 -11.5t8 -11.5t9 -7t11 -5t13 -2q14 0 28 45q16 51 84 340q109 457 215 643q29 49 62 49q61 0 61 -61q0 -20 -12 -43q-102 -178 -207 -615q-74 -315 -88 -358 q-41 -123 -143 -123q-127 0 -185 178q-35 94 -86 305q-78 324 -98 527z" />
<glyph unicode="W" horiz-adv-x="1474" d="M82 1010v6q0 61 61 61q55 0 62 -55q25 -246 119 -596q45 -168 86 -250q27 -53 41 -53q23 0 47 153q10 66 26.5 211.5t22.5 194.5q14 98 24 137q37 123 136 123q29 0 51 -8t36.5 -25.5t21.5 -29t16.5 -34t11.5 -26.5q16 -31 47 -153q6 -20 31.5 -128t42.5 -165 q68 -250 100 -250q16 0 51 190q8 45 24.5 155t26.5 167q53 313 103 504q8 33 21.5 47t39.5 14q61 0 62 -61q0 -18 -4 -35q-45 -158 -99 -490q-29 -188 -53 -323q-29 -160 -47 -197q-14 -31 -23.5 -46t-36 -31.5t-65.5 -16.5q-102 0 -152 123q-33 78 -69 219 q-14 55 -39 157.5t-33 135.5q-47 184 -65.5 184t-38.5 -151q-6 -51 -22.5 -196.5t-27.5 -211.5q-18 -106 -30 -137q-12 -33 -22.5 -52.5t-42 -45t-72.5 -25.5q-35 0 -60.5 10t-45 35t-26 36t-22.5 42q-39 78 -94 272q-90 328 -121 615z" />
<glyph unicode="X" d="M82 1139q0 61 61 61q27 0 72 -67q14 -20 139 -197.5t138 -198.5l204 328q43 74 82 74q61 0 62 -60q0 -20 -33 -69l-238 -383q12 -20 151.5 -217t153.5 -217q27 -43 27 -70q0 -61 -61 -62q-25 0 -66 62q-12 20 -137 195.5t-139 195.5q-215 -350 -252 -453q-23 -61 -62 -61 q-61 0 -61 61q0 33 10 56q80 178 287 508q-14 20 -155.5 222t-153.5 222q-29 45 -29 70z" />
<glyph unicode="Y" d="M82 1139q0 61 59 61q23 0 64 -49q8 -8 55 -69.5t77 -91t90 -61.5t126 -32q57 0 126 43t97 104q27 61 64 62q61 0 61 -62q0 -109 -67 -270l-289 -719q-23 -55 -64 -55q-61 0 -61 61q0 10 14 50l283 708q-76 -45 -164 -45q-45 0 -88 10.5t-76 22.5t-68.5 38.5t-56 43 t-51.5 52.5t-40 48t-35.5 49t-28.5 39q-6 6 -16.5 29t-10.5 33z" />
<glyph unicode="Z" horiz-adv-x="1064" d="M82 573.5q0 61.5 61 61.5h402q82 59 135 104t108.5 125t55.5 152q0 29 -37 45t-74 16q-209 0 -534 -100q-53 -14 -56 -14q-61 0 -61 61q0 47 61 66q373 111 590 110q90 0 162 -49t72 -135q0 -199 -219 -381h215q61 0 61 -61.5t-61 -61.5h-377q-211 -152 -256 -197 q-63 -61 -64 -110q0 -82 352 -82q260 0 402 47l24 8q18 6 25 6q61 0 61 -61q0 -45 -43 -60l-18 -6q-172 -57 -451 -57q-88 0 -154.5 5t-148.5 23.5t-127 63.5t-45 113q0 145 232 307h-232q-61 0 -61 61.5z" />
<glyph unicode="[" d="M82 -246q0 74 20.5 403.5t20.5 456.5q0 78 -20.5 306.5t-20.5 279.5q0 61 37 106.5t91 66t97 28.5t74 8q70 0 156 -70q61 -49 61 -77q0 -61 -61 -62q-20 0 -74 41q-61 45 -82 45q-59 0 -117.5 -22.5t-58.5 -63.5q0 -51 20.5 -279.5t20.5 -306.5q0 -127 -20.5 -456.5 t-20.5 -403.5q0 -55 104.5 -89t186.5 -34q92 0 278 54q29 8 41 8q61 0 62 -62q0 -41 -62 -61q-188 -61 -323 -62q-90 0 -180.5 26t-160 84t-69.5 136z" />
<glyph unicode="\" horiz-adv-x="655" d="M82 1139q0 61 61 61q49 0 62 -61q18 -82 46 -180.5t60.5 -193.5t66.5 -186.5t66.5 -174t57 -142t44 -105.5t19.5 -48q8 -23 8 -48q0 -61 -61 -61q-37 0 -61 61q-297 743 -365 1049q-4 25 -4 29z" />
<glyph unicode="]" d="M205 -368.5q0 61.5 61 61.5q76 0 226.5 -31t224.5 -31q29 0 45 37t16 86q0 78 -61.5 222.5t-61.5 248.5q0 145 37 468t37 446q0 70 -45 108.5t-170 38.5q-186 0 -186 -106q0 -61 -61.5 -61.5t-61.5 61.5q0 33 9 63.5t37 72.5t95.5 67.5t165.5 25.5q104 0 176 -25.5 t105.5 -69.5t46 -86t12.5 -89q0 -133 -37 -452.5t-37 -461.5q0 -78 61.5 -222t61.5 -248.5t-50 -175.5t-134 -71q-76 0 -226.5 31t-224.5 31q-61 0 -61 61.5z" />
<glyph unicode="^" horiz-adv-x="819" d="M82 1044q0 31 61 89q18 18 56.5 55t52.5 52t44 43t43 39t37.5 29.5t40 25.5t36 16.5t40 12.5t39.5 3q29 0 54.5 -11.5t43 -27.5t33 -43t24.5 -48.5t18.5 -54t13.5 -49t9 -44t5 -29.5q4 -14 4 -25q0 -61 -59 -61q-51 0 -64 61q-41 209 -82 209q-43 0 -97 -45t-206 -197 l-12 -12q-8 -8 -12 -11t-10 -9l-10 -10q-3 -3 -9 -7t-9 -5t-7 -3t-8.5 -3t-8.5 -1q-61 0 -61 61z" />
<glyph unicode="_" d="M-61 61.5q0 61.5 61 61.5q43 0 210 -8.5t282 -8.5q102 0 245.5 8.5t245.5 8.5q61 0 61 -61.5t-61 -61.5q-102 0 -245.5 -8t-245.5 -8q-115 0 -282 8t-210 8q-61 0 -61 61.5z" />
<glyph unicode="`" horiz-adv-x="573" d="M82 1346q0 63 61 63q25 0 99 -61q43 -35 118.5 -122t116.5 -169q14 -27 15 -49q0 -61 -62 -62q-35 0 -65 62q-72 141 -222 262q-61 49 -61 76z" />
<glyph unicode="a" d="M82 225q0 197 134 354.5t321 157.5q92 0 158.5 -33.5t66.5 -68.5q0 -61 -62 -62q-12 0 -59 20.5t-104 20.5q-137 0 -234.5 -120.5t-97.5 -268.5q0 -31 25.5 -56.5t56.5 -25.5q86 0 167 44t116.5 83t62.5 76q20 31 38.5 65.5t28 46t21.5 11.5q49 0 70.5 -27.5t35.5 -97.5 q2 -10 6.5 -28.5t6.5 -29t6 -26.5t7 -26.5t7 -22.5t8 -19.5t9.5 -14.5t11.5 -10t12 -3q12 0 37 6l25 8q18 6 24 6q61 0 62 -61q0 -45 -43 -60l-19 -6q-43 -16 -86 -16q-137 0 -180 219q-39 -68 -160 -154t-274 -86q-82 0 -143.5 61.5t-61.5 143.5z" />
<glyph unicode="b" d="M82 500q0 6 1 11t5 13t8 15.5t13.5 19.5t17.5 22.5t22.5 29t26.5 35t33.5 43t40.5 48.5q-86 121 -86 287q0 113 32.5 194.5t83 119.5t93.5 54.5t78 16.5q92 0 148 -58.5t56 -150.5q0 -113 -58 -215t-189 -248q49 -66 102 -112q47 -43 132 -104.5t133 -99.5t87 -101.5 t39 -135.5q0 -86 -76.5 -135t-169.5 -49q-70 0 -135 16q-74 16 -131 45q-61 29 -61 62q0 61 61 61q18 0 57 -16q43 -20 101 -33q59 -12 108 -12q39 0 81 16.5t42 44.5q0 59 -47 108.5t-148.5 120t-152.5 115.5q-63 55 -102 109q-133 -170 -148 -182q-18 -16 -37 -17 q-61 1 -61 62zM287 1024q0 -121 45 -184q201 219 200 360q0 86 -81 86q-55 0 -109.5 -62.5t-54.5 -199.5z" />
<glyph unicode="c" horiz-adv-x="860" d="M82 287q0 182 118.5 316t270.5 134q86 0 164 -39q61 -31 61 -63q0 -61 -61 -62q-23 0 -51 15q-53 27 -113 26q-111 0 -188.5 -103t-77.5 -224q0 -84 48 -124t157 -40q264 0 405 47l25 8q18 6 24 6q61 0 62 -61q0 -45 -43 -60l-19 -6q-172 -57 -454 -57q-172 0 -250 81 t-78 206z" />
<glyph unicode="d" d="M82 369q0 152 56.5 219t148.5 67q76 0 143 -51q61 -47 62 -72q0 -61 -62 -61q-27 0 -70 33q-33 29 -73 28q-82 0 -82 -163q0 -90 53 -168t131 -78q123 0 184.5 117.5t61.5 271.5q0 129 -135 252q-213 195 -213 321q0 72 52 124.5t161 103.5q96 45 184 67q82 23 150 29h6 q61 0 61 -61q0 -55 -61 -62q-59 -6 -127 -24q-84 -25 -164 -62q-74 -35 -106.5 -60.5t-32.5 -54.5q0 -33 49 -99t116 -128q182 -166 183 -346q0 -209 -95.5 -360.5t-273.5 -151.5q-129 0 -218 115t-89 254z" />
<glyph unicode="e" horiz-adv-x="819" d="M82 291q0 168 114.5 307t254.5 139q98 0 161.5 -55t63.5 -150q0 -102 -81 -188t-173 -127t-154 -41q74 -53 224 -53q141 0 282 47l25 8q18 6 24 6q61 0 62 -61q0 -45 -43 -60l-19 -6q-172 -57 -331 -57q-61 0 -122 11.5t-131.5 40t-113.5 90t-43 149.5zM205 291 q123 0 235.5 77.5t112.5 163.5q0 82 -102 82q-86 0 -166 -101t-80 -222z" />
<glyph unicode="f" horiz-adv-x="860" d="M123 -369q0 37 4 69t19.5 60.5t23.5 48t34.5 44t36 36t46.5 34t42 26.5t48 26l43 25q-47 119 -80 264q-74 317 -74 658q0 68 14.5 145.5t45 157.5t90 132t137.5 52q59 0 106.5 -36t71 -91t35.5 -107.5t12 -97.5q0 -88 -22.5 -157.5t-54 -106.5t-60.5 -56.5t-47 -19.5 q-61 0 -62 62q0 18 19.5 37.5t42 40t42 72.5t19.5 128q0 59 -31.5 134t-70.5 75q-70 0 -117 -119.5t-47 -244.5q0 -344 68 -627q31 -129 73 -240q119 59 285 115l25 8q18 6 24 6q61 0 62 -61q0 -45 -43 -60l-19 -6q-160 -53 -291 -118q41 -115 41 -226q0 -135 -79.5 -243.5 t-192.5 -108.5q-100 0 -159.5 73.5t-59.5 196.5zM246 -369q0 -147 96 -147q59 0 104.5 75.5t45.5 153.5q0 82 -29 168l-33 -16q-29 -14 -41 -22.5t-39.5 -25t-41 -33.5t-31 -40t-24.5 -51.5t-7 -61.5z" />
<glyph unicode="g" horiz-adv-x="819" d="M82 307q0 158 86 294t221 136q51 0 117.5 -33.5t66.5 -68.5q0 -61 -61 -62q-25 0 -63.5 20.5t-59.5 20.5q-84 0 -134 -100t-50 -207q0 -123 123 -123q72 0 138 84t66 162q0 61 60 62q63 0 63 -62q0 -33 15 -430q68 0 67 -61q0 -49 -61 -62v-102q0 -174 -59.5 -294 t-184.5 -120q-111 0 -179.5 67.5t-68.5 178.5q0 129 105.5 223t259.5 143q0 31 -3 97.5t-5 99.5q-102 -109 -213 -109t-178.5 67.5t-67.5 178.5zM307 -393q0 -123 123 -123t123 291v69q-113 -41 -179.5 -102t-66.5 -135z" />
<glyph unicode="h" horiz-adv-x="1105" d="M82 356q0 256 56.5 498t157.5 398.5t216 156.5q111 0 168 -82t57 -188q0 -154 -72.5 -280t-177.5 -204q-51 -41 -77 -41q-61 0 -62 62q0 25 58 69q82 61 145 161t63 233q0 55 -24.5 101t-77.5 46q-61 0 -132 -128t-123 -349t-52 -453q0 -233 61 -233q49 0 90 46t74 112.5 t70 133t97 112.5t140 46q184 0 185 -348q0 -61 61 -61q59 0 78 6l24 8q18 6 25 6q61 0 61 -61q0 -45 -43 -60l-18 -6q-49 -16 -127 -16q-88 0 -136 39t-48 145q0 86 -16.5 156t-45.5 70q-49 0 -90 -46.5t-73.5 -113t-69.5 -133t-97.5 -112.5t-140.5 -46q-184 0 -184 356z " />
<glyph unicode="i" horiz-adv-x="737" d="M164 307q0 61 41 225q16 61 61 62q61 0 62 -62q0 -12 -4 -28q-37 -147 -37 -197q0 -184 184 -184q80 0 221 47l25 8q18 6 24 6q61 0 62 -61q0 -45 -43 -60l-19 -6q-172 -57 -270 -57q-141 0 -224 83t-83 224zM307 987q0 41 26.5 59.5t55.5 18.5q43 0 77 -25.5t34 -81.5 q0 -35 -27 -56t-63.5 -21t-69.5 36.5t-33 69.5z" />
<glyph unicode="j" horiz-adv-x="860" d="M123 -328q0 176 274 328q-51 270 -129 641q-6 25 -6 35q0 61 62 61q53 0 65 -69q47 -213 123 -613q123 55 303 115l25 8q18 6 24 6q61 0 62 -61q0 -45 -43 -60l-19 -6q-166 -55 -329 -129q47 -258 47 -350q0 -90 -50.5 -153.5t-134.5 -63.5q-96 0 -185 97t-89 214z M246 -328q0 -66 54 -127t97 -61q29 0 45.5 29.5t16.5 64.5q0 51 -41 293q-172 -107 -172 -199zM369 1130q0 61 61 62q33 0 67.5 -29.5t34.5 -64.5q0 -29 -27.5 -45.5t-58.5 -16.5q-35 0 -56 29.5t-21 64.5z" />
<glyph unicode="k" horiz-adv-x="860" d="M123 471q0 102 10 325.5t10 268.5q0 33 -20 217v8q0 61 61 62q55 0 62 -62q20 -193 20 -225q0 -45 -10 -268.5t-10 -325.5q0 -57 10 -109q49 111 168 212.5t264 138.5q20 4 29 4q61 0 61 -62q0 -45 -61 -61q-115 -29 -213 -113q8 -14 10 -30q23 -90 68 -172 q47 -88 94 -136q61 -61 61 -82q0 -29 -18.5 -45t-42.5 -16q-29 0 -86 57q-55 55 -115 166q-39 68 -67 156q-25 -33 -43 -72q-8 -18 -27 -82q-27 -96 -47 -116q-18 -16 -45 -17q-43 0 -83 135t-40 244z" />
<glyph unicode="l" d="M82 471q0 59 57 61q-16 88 -16 205q0 262 75.5 395.5t190.5 133.5q102 0 184 -95.5t82 -310.5q0 -160 -102 -276.5t-262 -155.5q104 -305 426 -305q80 0 221 47l25 8q18 6 24 6q61 0 62 -61q0 -45 -43 -60l-19 -6q-172 -57 -270 -57q-211 0 -348.5 109.5t-198.5 300.5 h-27q-61 0 -61 61zM246 737q0 -106 14 -190q121 29 196.5 111.5t75.5 201.5q0 90 -15 151.5t-40.5 87t-46 35t-41.5 9.5q-14 0 -30.5 -10.5t-37 -38t-37 -70.5t-27.5 -118t-11 -169z" />
<glyph unicode="m" horiz-adv-x="2048" d="M82 61q0 23 16 56q100 197 176 297q119 160 218 159q29 0 51 -7t38 -25l25 -31q10 -12 18.5 -45t11.5 -46t9 -55t8 -52.5t4 -25t4.5 -23.5t4.5 -22.5t4 -21.5t4 -18.5t4 -15.5t5 -11t6 -8t7 -2q14 0 41 45q20 35 97 184q33 66 50 97.5t51 77.5t70.5 66.5t79.5 20.5 q78 0 117 -69.5t64 -220.5q31 -180 45 -181q4 0 9 2t11 7.5t11.5 10.5t12.5 14t13 16.5t14.5 20.5t13.5 21.5t15 23.5l16 24q49 76 86 120q72 88 146 88q33 0 58.5 -13t41 -29.5t30.5 -56.5t22.5 -65.5t21.5 -84.5q35 -139 51 -140q39 0 119 27l25 8q18 6 24 6q61 0 62 -61 q0 -45 -43 -60l-19 -6q-111 -37 -168 -37q-33 0 -58.5 14.5t-41 31t-30.5 54.5t-21.5 61.5t-18.5 72.5q-39 156 -55.5 156t-46.5 -37q-12 -14 -84 -123q-68 -102 -114 -145.5t-103 -43.5q-76 0 -109 64.5t-57 214.5q-33 193 -60 192q-45 0 -143 -196q-86 -168 -102 -193 q-68 -102 -144 -102q-25 0 -45 6t-33.5 13.5t-25.5 26.5t-18.5 29.5t-13.5 39t-9 40t-7 46t-7 45.5q-2 12 -6.5 34.5t-6.5 35t-5 29.5t-5 27.5t-6 19.5t-8 13.5t-8 4.5q-37 0 -117 -109q-84 -111 -168 -281q-31 -61 -64 -61q-61 0 -61 61z" />
<glyph unicode="n" horiz-adv-x="1228" d="M41 492q0 43 64.5 103t140.5 60q90 0 169 -93t107 -255q63 137 151.5 222t166.5 85q86 0 130 -73.5t48 -161.5t18.5 -162t48.5 -74q18 0 99 27l24 8q18 6 25 6q61 0 61 -61q0 -45 -43 -60l-18 -6q-111 -37 -148 -37q-86 0 -130 74t-48 162t-18.5 162t-48.5 74 q-55 0 -146.5 -127t-120.5 -304q-4 -27 -27.5 -44t-53.5 -17q-57 0 -62 61q-6 104 -21.5 189.5t-36 136.5t-45 85t-44 47t-37.5 13q-37 0 -79 -51t-65 -51q-61 1 -61 62z" />
<glyph unicode="o" d="M82 410q0 61 20.5 122.5t61.5 61.5q61 0 61 -62q0 -14 -6 -38q-14 -57 -14 -84q0 -109 76.5 -177.5t189.5 -68.5q117 0 212 69.5t95 176.5q0 109 -56 156.5t-169 47.5q-66 0 -119 -34q-41 -27 -65 -27q-61 0 -62 61q0 29 62 70q80 53 184 53q164 0 256 -84t92 -243 q0 -156 -131 -262.5t-299 -106.5q-164 0 -276.5 104.5t-112.5 264.5z" />
<glyph unicode="p" d="M82 389q0 156 145.5 252t325.5 96q135 0 221 -77.5t86 -208.5q0 -78 -44 -143.5t-105.5 -103.5t-121 -59.5t-97.5 -21.5q-61 0 -62 61q0 55 62 62q63 4 154 63.5t91 141.5q0 80 -49 121.5t-135 41.5q-125 0 -236.5 -61t-111.5 -164q0 -86 86 -586l22 136q10 61 62 61 q61 0 61 -61q0 -10 -2 -23l-80 -494q-2 -18 -18.5 -39.5t-48.5 -21.5q-55 0 -62 61q-6 70 -53 359q-90 536 -90 608z" />
<glyph unicode="q" horiz-adv-x="819" d="M82 266q0 178 144.5 324.5t285.5 146.5q78 0 164 -49q61 -37 61 -74q0 -61 -61 -61q-14 0 -62 29q-66 33 -102 32q-96 0 -201.5 -114.5t-105.5 -233.5q0 -66 28.5 -104.5t73.5 -38.5q100 0 203.5 87t103.5 159q0 61 62 61q27 0 44 -16.5t17 -44.5q0 -84 -30.5 -343 t-30.5 -354v-250q0 -29 -16.5 -45t-45.5 -16q-61 0 -61 61v250q0 82 9 180.5t20.5 180.5t11.5 90q-43 -43 -122 -83t-165 -40q-106 0 -165.5 82t-59.5 184z" />
<glyph unicode="r" horiz-adv-x="1105" d="M61 512q0 57 30 90t93 68q121 68 328 67q80 0 132 -68.5t52 -156.5q0 -61 8.5 -120.5t28 -118t57 -94.5t91.5 -36q100 0 180 27l24 8q18 6 25 6q61 0 61 -61q0 -45 -43 -60l-18 -6q-111 -37 -229 -37q-109 0 -180.5 78t-99.5 183.5t-28 230.5q0 37 -15 69.5t-44 32.5 q-176 0 -278 -57q-51 -29 -52 -45q0 -23 10.5 -48.5t10.5 -33.5q0 -61 -62 -61q-35 0 -58.5 44t-23.5 99z" />
<glyph unicode="s" horiz-adv-x="1105" d="M-66 121q0 43 46 57l18 6q123 41 238.5 108.5t183 123t142.5 96.5t134 41q133 0 230.5 -97.5t97.5 -230.5q0 -117 -135 -201.5t-357 -84.5q-61 0 -61 61t61 61q168 0 268.5 54.5t100.5 109.5q0 82 -61.5 143.5t-143.5 61.5q-45 0 -132 -63.5t-225 -153.5t-280 -137 l-36 -13q-12 -4 -27 -4q-62 1 -62 62z" />
<glyph unicode="t" horiz-adv-x="860" d="M123 430q0 303 61 918q6 61 62 61q61 0 61 -61v-13q-61 -614 -61 -905q0 -98 16 -147q96 96 172 147q160 106 314 123h10q61 0 61 -61q0 -55 -61 -62q-125 -14 -256 -102q-70 -47 -122 -100.5t-74.5 -79t-39.5 -25.5q-80 0 -121 123q-22 67 -22 184z" />
<glyph unicode="u" d="M82 246q0 90 41 336q10 61 61 61q61 0 62 -61q0 -4 -4 -29q-37 -221 -37 -307q0 -66 21.5 -94.5t80.5 -28.5q121 0 213 229q16 41 30.5 87t24 78t15.5 60.5t8 32.5q18 61 78 62q31 0 45 -12.5t20 -49.5q0 -2 6.5 -50t16.5 -109.5t22 -112.5q43 -174 95 -174q39 0 57 6 l25 8q18 6 24 6q61 0 62 -61q0 -45 -43 -60l-19 -6q-49 -16 -106 -16q-88 0 -134.5 68.5t-78.5 197.5l-13 62q-16 -49 -22 -62q-123 -307 -326 -307q-109 0 -167 66.5t-58 179.5z" />
<glyph unicode="v" horiz-adv-x="1187" d="M82 621v14q0 61 61 61q31 0 44.5 -14t17.5 -47q35 -252 47 -311q45 -201 149 -201q37 0 66 59q41 82 93 224.5t58 175.5q41 156 179 155q53 0 207 -61q61 -25 61 -62q0 -61 -61 -61q-23 0 -50 10q-127 51 -155 51q-45 0 -62 -61q-8 -39 -58 -181.5t-104 -248.5 q-61 -123 -174 -123q-197 0 -268 297q-8 37 -51 324z" />
<glyph unicode="w" horiz-adv-x="1474" d="M80 401q0 14 2 29q8 61 61 62q61 0 62 -62q0 -4 -1 -13t-1 -16q0 -96 45 -187t121 -91q68 0 157 119q55 76 101 164q33 66 57 126q8 20 14.5 31.5t21.5 21t38 9.5q31 0 44 -14.5t17 -47.5q18 -131 68.5 -239.5t95.5 -108.5q106 0 209 215q23 47 76 195q12 35 25.5 48 t37.5 13q61 0 62 -61q0 -16 -11 -45q-57 -156 -79 -205q-135 -283 -320 -283q-156 0 -246 289q-57 -113 -116 -186q-127 -164 -252 -164q-133 0 -211 122.5t-78 278.5z" />
<glyph unicode="x" d="M82 -20q0 20 24 61q139 276 197 354q-12 16 -147 205q-33 45 -33 76q0 61 61 61q27 0 70 -61l129 -180q4 6 12 16q47 63 80 101t101.5 81t140.5 43q82 0 133 -51t51 -133q0 -59 -12 -125t-41 -138.5t-89.5 -119.5t-144.5 -47q-53 0 -96 20.5t-61.5 42t-43 57.5t-32.5 46 q-88 -145 -170 -309q-14 -27 -19.5 -36.5t-17.5 -17.5t-31 -8q-61 1 -61 62zM459 391q78 -109 97 -127t58 -18q49 0 84 35.5t51.5 89t22.5 98.5t6 84q0 61 -61 61q-18 0 -39 -7t-36 -15t-35.5 -27.5t-33 -31t-34 -37t-28.5 -34.5t-28.5 -38t-23.5 -33z" />
<glyph unicode="y" horiz-adv-x="901" d="M82 676q0 61 61 61q55 0 62 -61q6 -57 18 -127q33 -174 72 -275q12 -29 33 -28q133 0 206.5 67.5t161.5 239.5q25 61 62 61q61 0 61 -61q0 -242 -24 -561q-23 -289 -58 -447q-39 -184 -184 -184q-266 0 -266 356q0 98 54 190.5t130 92.5q61 0 61 -61q0 -10 -11 -20.5 t-27.5 -22t-22.5 -19.5q-61 -70 -61 -160q0 -115 29.5 -174t113.5 -59q49 0 68 94q27 121 51 422q18 238 18 307l-10 -14q-10 -14 -15.5 -20.5t-19.5 -23t-25.5 -25.5t-31 -24.5t-36.5 -24.5t-43 -20.5t-52.5 -17.5t-60.5 -10t-68 -4q-111 0 -156 123q-43 113 -70 280 q-10 66 -18 129q-2 11 -2 21z" />
<glyph unicode="z" horiz-adv-x="901" d="M82 675.5q0 61.5 61 61.5q324 0 449 -49t125 -156q0 -49 -61.5 -193t-61.5 -216q0 -82 56.5 -173t112.5 -180t56 -163q0 -115 -78.5 -180.5t-208.5 -65.5q-143 0 -235 72.5t-92 173.5q0 96 76.5 152.5t128.5 56.5q61 0 61 -62q0 -20 -61 -57q-2 -2 -12.5 -8t-14.5 -8.5 t-12.5 -8.5t-11.5 -9t-10 -9t-9 -10t-6 -10.5t-5 -13.5t-1 -13q0 -49 54 -86t150 -37q164 0 164 121q0 43 -56 128t-112.5 190.5t-56.5 199.5q0 96 61.5 243.5t61.5 165.5q0 82 -451 82q-61 0 -61 61.5z" />
<glyph unicode="{" horiz-adv-x="614" d="M82 492q0 47 33 92q96 133 151 252q66 141 66 229q0 23 -6.5 89.5t-6.5 74.5q0 61 58 61q59 0 65 -61q12 -123 13 -164q0 -117 -80 -283q-55 -121 -154 -260q43 -14 59.5 -56t24.5 -114q8 -88 23 -143q33 -125 143 -174q27 -10 44 -26.5t17 -28.5q0 -61 -61 -62 q-37 0 -61 12q-150 70 -199 246q-8 31 -27 164q-10 90 -41 90q-61 1 -61 62z" />
<glyph unicode="|" d="M422 737q0 82 4 275.5t4 335.5q0 61 61.5 61t61.5 -61q0 -141 -4 -335t-4 -276q0 -37 8 -301t8 -436q0 -20 -4 -194.5t-4 -194.5q0 -61 -61.5 -61.5t-61.5 61.5q0 20 4 194.5t4 194.5q0 176 -8 438t-8 299z" />
<glyph unicode="}" horiz-adv-x="614" d="M102 1327q0 49 62 70q33 12 61 12q84 0 134.5 -55.5t50.5 -153.5q0 -49 -14.5 -149.5t-14.5 -149.5q0 -70 16.5 -108.5t32.5 -49t49 -20.5q53 -14 53 -78q0 -57 -55 -86q-76 -37 -100 -55q-78 -63 -78 -299q0 -94 39 -172q10 -20 10 -53q0 -61 -61 -62q-31 0 -62 62 q-49 98 -49 225q0 295 127 397q10 8 57 37q-102 84 -102 262q0 49 14.5 149.5t14.5 149.5q0 86 -62 86q-12 0 -30.5 -10t-30.5 -10q-62 0 -62 61z" />
<glyph unicode="~" horiz-adv-x="819" d="M82 1249q0 27 24 51q72 72 185 72q61 0 128.5 -41t92.5 -41q82 0 100 58q20 61 64 61q61 0 61 -61q0 -20 -4 -33q-23 -66 -81 -107t-140 -41q-61 0 -129 41t-92 41q-61 0 -101 -39q-23 -23 -47 -22q-61 0 -61 61z" />
<glyph unicode="&#xa0;" />
<glyph unicode="&#xa1;" horiz-adv-x="491" d="M164 1137q0 29 22.5 46t55.5 17q31 0 54 -21.5t23 -52.5q0 -33 -16 -58.5t-45 -25.5q-39 0 -66.5 28t-27.5 67zM180 737q0 61 62 62q55 0 61 -62q25 -246 25 -880q0 -61 -61.5 -61.5t-61.5 61.5q0 635 -21 839z" />
<glyph unicode="&#xa2;" horiz-adv-x="901" d="M82 287q0 166 100.5 288.5t259.5 153.5q4 27 13.5 118t18.5 190.5t9 103.5q6 59 62 59q61 0 61 -61q0 -4 -1 -15.5t-1 -13.5q0 -6 -8 -93t-15.5 -169t-13.5 -113q86 -6 132 -53t46 -113q0 -61 -61 -61t-61 61q0 18 -19.5 31.5t-48.5 13.5q-18 -229 -18 -327q0 -90 6 -160 q86 8 174 43q25 10 41 10q61 0 61 -59q0 -27 -24 -45q-4 -4 -29 -17q-92 -43 -209 -55q76 -285 92 -323q6 -16 6 -29q0 -61 -59 -62q-45 0 -68 56q-10 27 -92 354q-145 8 -249.5 82t-104.5 205zM205 287q0 -18 8 -40t27.5 -49.5t66.5 -48t113 -24.5q-6 80 -6 162 q0 131 16 311q-100 -25 -162.5 -111.5t-62.5 -199.5z" />
<glyph unicode="&#xa3;" horiz-adv-x="1187" d="M82 94q0 84 65.5 134.5t159.5 50.5q47 0 90 -19l68 150h-43q-25 0 -43.5 16t-18.5 45q0 61 62 61h90l242 607q14 35 25.5 48t33.5 13q63 0 64 -61q0 -25 -9 -45l-223 -562h326q61 0 61 -61t-61 -61h-371l-92 -203q10 -4 51 -22.5t70.5 -30t82 -21.5t107.5 -10 q25 0 86.5 17.5t77.5 25.5q33 18 61 18q61 0 62 -61q0 -27 -62 -62q-31 -18 -106.5 -39.5t-118.5 -21.5q-49 0 -97 7t-90 20.5t-69.5 23.5t-63.5 25.5t-44 19.5q-33 -63 -89.5 -124.5t-117.5 -61.5q-74 0 -120 52t-46 132zM205 94.5q0 -61.5 41 -61.5q33 0 96 117 q-16 6 -35 6q-102 0 -102 -61.5z" />
<glyph unicode="&#xa4;" horiz-adv-x="1392" d="M82 1004q0 61 61 61q31 0 76 -61l39 -56q37 -51 37 -67q0 -25 -16.5 -43.5t-45.5 -18.5q-33 0 -77 62l-39 53q-35 54 -35 70zM143 61q0 31 60 91l121 120q70 61 84 62q61 0 61 -62q0 -29 -61 -90l-119 -119q-63 -63 -84 -63q-62 0 -62 61zM369 586q0 119 89 213t218 94 q115 0 149 -74q23 0 58 -6t81 -22.5t77.5 -55.5t31.5 -92q0 -150 -116.5 -224.5t-280.5 -74.5q-127 0 -217 66.5t-90 175.5zM492 586q0 -55 54 -87t130 -32q113 0 193.5 44t80.5 132q0 27 -54 40t-114 13q-61 0 -61 60q-10 14 -45 14q-78 0 -131 -60.5t-53 -123.5zM881 250 q0 61 61 61q37 0 125 -61l104 -70q53 -35 54 -61q0 -61 -62 -62q-37 0 -125 62l-96 69q-61 42 -61 62zM971 920q0 27 61 88l131 131q61 61 86 61q61 0 62 -61q0 -29 -62 -90l-127 -127q-63 -63 -90 -64q-61 1 -61 62z" />
<glyph unicode="&#xa5;" d="M82 1049q0 61 61 61q31 0 66 -49q86 -119 125 -193q6 -10 46 -108t71 -137q4 115 26.5 192.5t47 112.5t85 106.5t99.5 124.5q29 41 69 41q61 0 62 -61q0 -8 -8.5 -21.5t-18.5 -23.5l-10 -13q-41 -59 -100.5 -127.5t-78 -99.5t-35 -101.5t-16.5 -185.5q27 2 84.5 8.5 t98.5 10.5t63 6q4 0 11.5 1t9.5 1q61 0 61 -62q0 -55 -61 -61l-267 -27v-182q164 -16 267 -16q61 0 61 -61.5t-61 -61.5q-102 0 -267 16v-78q0 -61 -61 -61t-61 61v93q-39 4 -191 26q-55 6 -55 62q0 61 61 61q10 0 21 -2q100 -14 164 -22v153q-233 -23 -246 -22 q-61 0 -62 61q0 55 62 61l149 15q-27 35 -49 77t-47 102t-37 85q-29 57 -121 193q0 2 -5 10t-9 17.5t-4 17.5z" />
<glyph unicode="&#xa6;" horiz-adv-x="532" d="M164 287q0 61 61 61q41 0 62 -61q12 -37 26.5 -125t14.5 -162q0 -254 -13 -328q-10 -61 -61 -61q-61 0 -61 61q0 12 4 37q8 49 8 291q0 55 -11.5 136t-23.5 114q-6 25 -6 37zM205 1139q0 61 61 61q20 0 40 -16.5t22 -44.5q4 -31 12 -201t8 -201v-205q0 -61 -61.5 -61 t-61.5 61v205q0 18 -5 116.5t-10 191t-5 94.5z" />
<glyph unicode="&#xa7;" horiz-adv-x="901" d="M82 -262q0 55 61 61q18 2 74.5 8.5t99.5 10.5q281 31 281 133q0 41 -47 72.5t-113.5 56t-133 54.5t-114 83t-47.5 127q0 63 53.5 131t163.5 84q-115 51 -180 112.5t-65 151.5q0 172 116.5 274.5t284.5 102.5q55 0 99 -36t44 -87q0 -61 -61 -61q-20 0 -40.5 30.5 t-41.5 30.5q-106 0 -192 -62.5t-86 -191.5q0 -51 60 -92t145 -73.5t170 -69.5t145.5 -99.5t60.5 -144.5q0 -61 -42 -140t-105 -124q49 -53 49 -129q0 -66 -39 -115t-103.5 -76.5t-124 -42t-126.5 -22.5l-164 -17q-6 0 -17 -2h-4q-61 1 -61 62zM266 344q0 -33 29 -60.5 t61.5 -42t97 -39t97.5 -38.5q53 2 99 67.5t46 112.5q0 45 -44 78t-128 72q-16 6 -24 10q0 -61 -82 -62q-70 0 -111 -31.5t-41 -66.5z" />
<glyph unicode="&#xa8;" horiz-adv-x="819" d="M143 1221q0 61 62 61q33 0 67.5 -29.5t34.5 -64.5q0 -29 -27.5 -45.5t-58.5 -16.5q-35 0 -56.5 30t-21.5 65zM512 1159q0 61 61 62q33 0 68 -30t35 -65q0 -29 -27.5 -45t-58.5 -16q-35 0 -56.5 29.5t-21.5 64.5z" />
<glyph unicode="&#xa9;" horiz-adv-x="1269" d="M82 450.5q0 188.5 102.5 305t266.5 116.5q57 0 81 -12q0 49 62 62q102 20 164 20q182 0 306 -137t124 -354q0 -203 -150.5 -327t-341.5 -124q-254 0 -434 131t-180 319.5zM205 451q0 -135 143.5 -231.5t347.5 -96.5q131 0 250 87t119 241q0 160 -85 264t-222 104 q-37 0 -97.5 -10t-66.5 -10q0 -31 -18.5 -46.5t-43.5 -15.5q-20 0 -45.5 6.5t-35.5 6.5q-98 0 -172 -70.5t-74 -228.5zM389 410q0 139 82 202.5t184 63.5q61 0 61.5 -61.5t-61.5 -61.5q-31 0 -57.5 -6t-56 -41t-29.5 -96.5t61 -61.5q117 0 256 70q25 12 52 12q61 0 61 -61 q0 -31 -61 -62q-164 -82 -308 -82q-80 0 -132 52.5t-52 132.5z" />
<glyph unicode="&#xaa;" horiz-adv-x="757" d="M82 963q0 94 116.5 165.5t211.5 71.5q61 0 61 -61q86 0 145.5 -70t59.5 -127q0 -61 -62 -61q-31 0 -61 61q-37 74 -82 74q-12 0 -28.5 -38t-34 -83t-54.5 -83t-88 -38q-74 0 -129 61.5t-55 127.5zM164 614.5q0 61.5 61 61.5q143 0 328 37q16 4 20 4q61 0 62 -62 q0 -49 -62 -61q-205 -41 -348 -41q-61 0 -61 61.5zM205 963q0 -66 61 -66q12 0 23.5 24.5t28 68.5t34.5 73q-147 -57 -147 -100z" />
<glyph unicode="&#xab;" horiz-adv-x="1474" d="M82 246q0 102 106 182l390 287q31 23 57 22q61 0 61 -61q0 -16 -12 -28.5t-49 -39.5l-369 -276q-61 -45 -61 -86q0 -61 61 -62q295 0 471 -61q61 -20 62 -62q0 -61 -62 -61q-16 0 -39 6q-47 16 -172 35.5t-260 19.5q-80 0 -132 52.5t-52 132.5zM717 369q0 16 2 30.5 t8 28.5t10 22.5t15.5 21.5t15.5 17l16 17l15 14q137 137 143 156q6 25 23.5 43t38.5 18q61 0 61 -61q0 -14 -8 -39q-12 -43 -176 -207q-41 -41 -41 -61q0 -35 41 -47l450 -138q61 -18 62 -61q0 -61 -62 -62q-8 0 -22.5 3.5t-16.5 3.5l-411 125q-29 8 -45.5 15t-50 26.5 t-51 54.5t-17.5 80z" />
<glyph unicode="&#xac;" horiz-adv-x="901" d="M82 627q0 55 61 61q492 49 553.5 49t61.5 -61q0 -4 -4 -66q-16 -190 -17 -221q0 -109 20.5 -180.5t41 -103t20.5 -44.5q0 -61 -61 -61q-51 0 -97.5 108.5t-46.5 280.5q0 70 17 221q-446 -45 -488 -45q-61 1 -61 62z" />
<glyph unicode="&#xad;" d="M164 346q0 43 61 64q123 41 328 41q61 0 246 -21q29 -4 45 -20.5t16 -40.5q0 -61 -61 -62q-4 0 -41 4q-147 16 -205 17q-184 0 -285 -35q-18 -6 -43 -6q-61 0 -61 59z" />
<glyph unicode="&#xae;" horiz-adv-x="1372" d="M82 512q0 102 49 222t132 223.5t204 173t250 69.5q160 0 296 -117.5t206.5 -277.5t70.5 -305q0 -166 -102 -228q-49 -119 -201.5 -195.5t-347.5 -76.5q-283 0 -420 135t-137 377zM205 512q0 -389 434 -389q254 0 385 127q-141 12 -323.5 99t-202.5 126l-33 -65 q-31 -61 -62 -62q-61 0 -61 62q0 31 18 61l134 258q31 59 54 98t70.5 77t98.5 38q104 0 154.5 -63.5t50.5 -141.5q0 -88 -90.5 -140t-231.5 -52q61 -47 207.5 -111.5t277.5 -64.5q0 61 72 61q10 31 10 70q0 106 -54 238t-162.5 235.5t-233.5 103.5q-180 0 -346 -197.5 t-166 -367.5zM600 668q68 0 133.5 20.5t65.5 48.5q0 82 -82 82q-8 0 -17.5 -6t-19.5 -17.5t-18.5 -22.5t-18.5 -28.5t-16 -28.5t-15.5 -27.5t-11.5 -20.5z" />
<glyph unicode="&#xaf;" d="M82 1307q0 49 61 61q205 41 697 41q61 0 61 -61.5t-61 -61.5q-481 0 -676 -39q-16 -2 -21 -2q-61 1 -61 62z" />
<glyph unicode="&#xb0;" horiz-adv-x="634" d="M82 1147q0 113 61.5 187.5t163.5 74.5q94 0 170 -81t76 -181q0 -88 -59.5 -146.5t-186.5 -58.5q-98 0 -161.5 64.5t-63.5 140.5zM205 1147q0 -35 30.5 -58.5t71.5 -23.5q39 0 61.5 4t42 22.5t19.5 55.5q0 47 -37 93t-86 46q-45 0 -73.5 -39t-28.5 -100z" />
<glyph unicode="&#xb1;" d="M164 -63q0 43 61 63q123 41 328 41q61 0 246 -21q29 -4 45 -20t16 -41q0 -61 -61 -61q-4 0 -41 4q-147 16 -205 16q-184 0 -285 -35q-18 -6 -43 -6q-61 1 -61 60zM205 389.5q0 61.5 61 61.5q80 0 191 16q-6 90 -6 209q0 61 61 61t61 -61q0 -106 7 -191q74 12 108 21 q25 6 29 6q61 0 61 -61q0 -45 -61 -62q-27 -8 -129 -27q12 -102 22 -145q4 -16 4 -29q0 -61 -61 -61q-45 0 -61 61q-14 47 -25 156q-111 -16 -201 -16q-61 0 -61 61.5z" />
<glyph unicode="&#xb2;" horiz-adv-x="614" d="M82 1307q0 45 43 73.5t100 28.5q82 0 133.5 -49t51.5 -131q0 -63 -46.5 -132t-92.5 -126.5t-46 -89.5q0 -29 24.5 -45.5t57.5 -16.5h164q61 0 61 -61.5t-61 -61.5h-164q-84 0 -144.5 50.5t-60.5 130.5q0 63 46.5 131.5t92.5 126t46 90.5q0 61 -62 61q-20 0 -40.5 -20.5 t-41.5 -20.5q-61 1 -61 62z" />
<glyph unicode="&#xb3;" horiz-adv-x="532" d="M82 676q0 61 61 61q20 0 40 -20.5t40 -20.5q35 0 70 30t35 73q0 20 -65.5 99t-65.5 138q0 39 17 72t37.5 50.5t38 35.5t17.5 31q0 61 -61 61q-20 0 -41 -20.5t-41 -20.5q-61 0 -62 62q0 45 43 73.5t101 28.5q82 0 133 -51t51 -133q0 -45 -27.5 -83t-55.5 -63.5t-28 -42.5 q0 -12 66 -93t66 -144q0 -100 -75 -163t-151 -63q-57 0 -100 29t-43 74z" />
<glyph unicode="&#xb4;" horiz-adv-x="757" d="M164 1036q0 8 2 15.5t7 15.5t9 13t16.5 18.5t18.5 21.5q188 213 346 277q31 12 51 12q61 0 62 -61q0 -16 -19.5 -35t-42.5 -27q-70 -29 -162 -106.5t-145 -143.5q-53 -61 -82 -61q-61 0 -61 61z" />
<glyph unicode="&#xb5;" horiz-adv-x="942" d="M82 -578l2 21l127 1151q6 61 65 61q57 0 58 -61q0 -51 74.5 -261t123.5 -210q74 0 139.5 167t65.5 388q0 59 61.5 59t61.5 -61q0 -162 -36 -312.5t-112.5 -257t-179.5 -106.5q-45 0 -79.5 20.5t-63.5 64.5t-46 83t-44 104l-94 -850q-6 -61 -62 -61q-33 0 -47 13t-14 48z " />
<glyph unicode="&#xb6;" horiz-adv-x="839" d="M82 913q0 121 96 204t236 83q106 0 250 -29q57 -12 57 -73q0 -25 -8 -183.5t-8 -222.5q0 -98 4 -185t11 -157.5t12 -111.5t14.5 -94.5t9.5 -57.5q2 -20 2 -25q0 -61 -62 -61q-53 0 -61 61q-2 10 -10.5 60.5t-14.5 92.5t-13 104.5t-11 132t-4 139.5q-51 2 -146 12 q0 -37 21.5 -225.5t31.5 -233.5l3 -8v-12q0 -61 -62 -62q-27 0 -40 14.5t-21 47.5q-14 57 -36 251.5t-22 243.5q-98 25 -163.5 100.5t-65.5 194.5zM205 913q0 -70 33.5 -111.5t72.5 -51.5v307q-106 -44 -106 -144zM434 725q78 -8 148 -12q2 63 8 200.5t6 143.5 q-68 14 -162 18v-350z" />
<glyph unicode="&#xb7;" horiz-adv-x="573" d="M205 614q0 78 74 78q35 0 62.5 -28.5t27.5 -73.5q0 -33 -25 -55.5t-57 -22.5q-35 0 -58.5 33.5t-23.5 68.5z" />
<glyph unicode="&#xb8;" horiz-adv-x="491" d="M82 -471q0 29 14.5 42t46.5 19l21 4q18 4 26.5 5.5t27 6.5t27.5 11t20 13.5t16.5 18.5t5.5 23q0 43 -17.5 72t-60.5 72q-86 86 -86 184q0 61 61.5 61t61.5 -61q0 -49 61 -111q102 -102 103 -217q0 -94 -67 -137t-175 -65q-10 -2 -25 -2q-61 0 -61 61z" />
<glyph unicode="&#xb9;" horiz-adv-x="450" d="M123 799q0 16 2 24q39 156 39 201v266q0 61 61.5 61.5t61.5 -61.5v-266q0 -61 -41 -225q-16 -61 -62 -62q-61 1 -61 62z" />
<glyph unicode="&#xba;" horiz-adv-x="634" d="M82 780q0 59 61 60q4 0 10.5 -1t10.5 -1t46 -7.5t84 -13.5t98.5 -12t99.5 -6q29 0 45 -17.5t16 -44.5q0 -61 -61 -61q-43 0 -102.5 6t-105.5 12t-91.5 14.5t-49.5 8.5q-61 8 -61 63zM82 1147q0 113 61.5 187.5t163.5 74.5q94 0 170 -81t76 -181q0 -88 -59.5 -146.5 t-186.5 -58.5q-98 0 -161.5 64.5t-63.5 140.5zM205 1147q0 -35 30.5 -58.5t71.5 -23.5q39 0 61.5 4t42 22.5t19.5 55.5q0 47 -37 93t-86 46q-45 0 -73.5 -39t-28.5 -100z" />
<glyph unicode="&#xbb;" horiz-adv-x="1556" d="M82 512q0 61 61 61l21 -2l262 -26q260 -25 347 -81t87 -136q0 -84 -68.5 -138.5t-302.5 -152.5l-223 -90q-20 -8 -41 -8q-61 0 -61 61q0 25 11 37t44 24l227 93q137 57 203 92t77 48t11 34q0 29 -101 56.5t-226 39.5l-271 27q-57 6 -57 61zM737 676q0 61 62 61 q14 0 45 -10l203 -63q256 -82 342 -142.5t86 -152.5q0 -35 -14.5 -60.5t-30 -41t-56.5 -31t-60.5 -20.5t-76.5 -19q-98 -29 -184 -136q-45 -61 -70 -61q-61 0 -61 61q0 25 30 70q92 127 244 182q33 12 77 22.5t61.5 16.5t17.5 17q0 20 -18.5 38.5t-98.5 55.5t-227 86 q-35 12 -209 65q-62 19 -62 62z" />
<glyph unicode="&#xbc;" horiz-adv-x="1187" d="M123 799q0 16 2 24q39 156 39 201v266q0 61 61.5 61.5t61.5 -61.5v-266q0 -61 -41 -225q-16 -61 -62 -62q-61 1 -61 62zM369 184q0 88 28 203l176 690q16 61 62 62q61 0 61 -62q0 -18 -10 -59l-174 -686q-20 -82 -20 -148q0 -61 -61.5 -61t-61.5 61zM737 205 q0 70 19.5 132t38 94t61.5 97q2 2 6 9.5t6 9.5t6.5 8t6.5 8t6 7t7 7.5t8 5.5t10 4l11 2q5 1 11 1q61 0 61 -62q0 -14 -37 -69q-53 -80 -75.5 -133.5t-22.5 -120.5q0 -61 62 -62q45 0 61 62q6 29 23.5 45t37.5 16q61 0 62 -61q0 -33 -10.5 -89.5t-10.5 -74.5q0 -59 17 -115 q4 -20 4 -28q0 -61 -62 -62q-27 0 -39 14.5t-22 47.5q-20 68 -20 143q-18 -20 -41 -21q-82 0 -133.5 51.5t-51.5 133.5z" />
<glyph unicode="&#xbd;" horiz-adv-x="1269" d="M123 799q0 16 2 24q39 156 39 201v266q0 61 61.5 61.5t61.5 -61.5v-266q0 -61 -41 -225q-16 -61 -62 -62q-61 1 -61 62zM369 164q0 88 28 203l176 690q16 61 62 61q61 0 61 -61q0 -18 -10 -60l-174 -686q-20 -82 -20 -147q0 -61 -61.5 -61t-61.5 61zM737 446q0 45 43 74 t101 29q82 0 133 -49t51 -131q0 -63 -46 -132t-92 -126.5t-46 -90.5q0 -29 24.5 -45t57.5 -16h163q61 0 61.5 -61.5t-61.5 -61.5h-163q-84 0 -144.5 50.5t-60.5 129.5q0 63 46 132t92 126.5t46 90.5q0 61 -61 61q-20 0 -41 -20.5t-41 -20.5q-62 0 -62 61z" />
<glyph unicode="&#xbe;" horiz-adv-x="1392" d="M82 676q0 61 61 61q20 0 40 -20.5t40 -20.5q35 0 70 30t35 73q0 20 -65.5 99t-65.5 138q0 39 17 72t37.5 50.5t38 35.5t17.5 31q0 61 -61 61q-20 0 -41 -20.5t-41 -20.5q-61 0 -62 62q0 45 43 73.5t101 28.5q82 0 133 -51t51 -133q0 -45 -27.5 -83t-55.5 -63.5t-28 -42.5 q0 -12 66 -93t66 -144q0 -100 -75 -163t-151 -63q-57 0 -100 29t-43 74zM553 102q0 88 29 203l176 690q16 61 61 62q61 0 62 -62q0 -18 -11 -59l-174 -686q-20 -82 -20 -148q0 -61 -61.5 -61t-61.5 61zM942 205q0 70 19.5 132t38 94t61.5 97q2 2 6 9.5t6 9.5t6 8t6 8t6.5 7 t7.5 7.5t8 5.5t10 4l10 2q5 1 12 1q61 0 61 -62q0 -14 -37 -69q-53 -80 -75.5 -133.5t-22.5 -120.5q0 -61 61 -62q45 0 62 62q6 29 23.5 45t37.5 16q61 0 62 -61q0 -33 -10.5 -89.5t-10.5 -74.5q0 -59 17 -115q4 -20 4 -28q0 -61 -62 -62q-27 0 -39 14.5t-22 47.5 q-20 68 -21 143q-18 -20 -41 -21q-82 0 -133 51.5t-51 133.5z" />
<glyph unicode="&#xbf;" horiz-adv-x="655" d="M82 205q0 53 82 151.5t82 167.5v213q0 61 61.5 61.5t61.5 -61.5v-213q0 -80 -41 -149.5t-82 -113.5t-41 -56q0 -33 87 -57.5t220 -24.5q61 0 61 -61.5t-61 -61.5q-129 0 -220 19.5t-133 53t-59.5 65.5t-17.5 67zM188 1114q0 86 58 86q29 0 55.5 -25.5t26.5 -56.5 q0 -45 -24.5 -77.5t-53.5 -32.5q-31 0 -46.5 33.5t-15.5 72.5z" />
<glyph unicode="&#xc0;" d="M82 61q0 27 14 54q113 227 203 673q16 82 68.5 118t109.5 36q63 0 130 -93t112 -210t69 -229h52q29 0 45 -18.5t16 -43t-16.5 -43t-44.5 -18.5h-29q8 -55 8 -103q0 -80 -51 -132t-113 -52q-78 0 -161.5 82t-83.5 164q0 141 256 157q-33 133 -95.5 274.5t-93.5 141.5 q-29 0 -41 -14t-18 -47q-92 -457 -211 -697q-12 -27 -17.5 -35t-16.5 -17t-30 -9q-61 0 -61 61zM492 1346q0 63 61 63q25 0 98 -61q43 -35 119 -122t117 -169q14 -27 14 -49q0 -61 -61 -62q-35 0 -66 62q-72 141 -221 262q-61 49 -61 76zM532 246q0 -31 46.5 -77t76.5 -46 q41 0 41 61q0 51 -8 99q-156 -10 -156 -37z" />
<glyph unicode="&#xc1;" d="M82 61q0 27 14 54q113 227 203 673q16 82 68.5 118t109.5 36q63 0 130 -93t112 -210t69 -229h52q29 0 45 -18.5t16 -43t-16.5 -43t-44.5 -18.5h-29q8 -55 8 -103q0 -80 -51 -132t-113 -52q-78 0 -161.5 82t-83.5 164q0 141 256 157q-33 133 -95.5 274.5t-93.5 141.5 q-29 0 -41 -14t-18 -47q-92 -457 -211 -697q-12 -27 -17.5 -35t-16.5 -17t-30 -9q-61 0 -61 61zM532 246q0 -31 46.5 -77t76.5 -46q41 0 41 61q0 51 -8 99q-156 -10 -156 -37zM532 1126q0 27 46 58q31 20 57 47q55 55 98 125q35 53 66 53q61 0 61 -61q0 -20 -24 -58 q-70 -100 -119 -149q-33 -31 -72 -60q-25 -16 -51 -16q-62 0 -62 61z" />
<glyph unicode="&#xc2;" d="M82 61q0 27 14 54q113 227 203 673q16 82 68.5 118t109.5 36q63 0 130 -93t112 -210t69 -229h52q29 0 45 -18.5t16 -43t-16.5 -43t-44.5 -18.5h-29q8 -55 8 -103q0 -80 -51 -132t-113 -52q-78 0 -161.5 82t-83.5 164q0 141 256 157q-33 133 -95.5 274.5t-93.5 141.5 q-29 0 -41 -14t-18 -47q-92 -457 -211 -697q-12 -27 -17.5 -35t-16.5 -17t-30 -9q-61 0 -61 61zM143 1126q0 27 62 88l33 33l33 34q7 7 31 28.5t33 29t30.5 22.5t35 20t34 13.5t39 11.5t38.5 3q49 0 88 -29.5t61.5 -78t34 -82t17.5 -68.5q4 -14 4 -25q0 -61 -60 -61 q-51 0 -63 61q-10 49 -32.5 104.5t-49.5 55.5q-43 0 -87 -34.5t-134 -125.5q-61 -61 -86 -61q-62 0 -62 61zM532 246q0 -31 46.5 -77t76.5 -46q41 0 41 61q0 51 -8 99q-156 -10 -156 -37z" />
<glyph unicode="&#xc3;" d="M82 61q0 27 14 54q113 227 203 673q16 82 68.5 118t109.5 36q63 0 130 -93t112 -210t69 -229h52q29 0 45 -18.5t16 -43t-16.5 -43t-44.5 -18.5h-29q8 -55 8 -103q0 -80 -51 -132t-113 -52q-78 0 -161.5 82t-83.5 164q0 141 256 157q-33 133 -95.5 274.5t-93.5 141.5 q-29 0 -41 -14t-18 -47q-92 -457 -211 -697q-12 -27 -17.5 -35t-16.5 -17t-30 -9q-61 0 -61 61zM225 1249q0 27 25 51q72 72 184 72q61 0 129 -41t92 -41q82 0 101 58q20 61 63 61q61 0 62 -61q0 -20 -4 -33q-23 -66 -81.5 -107t-140.5 -41q-61 0 -128.5 41t-92.5 41 q-61 0 -100 -39q-23 -23 -47 -22q-62 0 -62 61zM532 246q0 -31 46.5 -77t76.5 -46q41 0 41 61q0 51 -8 99q-156 -10 -156 -37z" />
<glyph unicode="&#xc4;" d="M82 61q0 27 14 54q113 227 203 673q16 82 68.5 118t109.5 36q63 0 130 -93t112 -210t69 -229h52q29 0 45 -18.5t16 -43t-16.5 -43t-44.5 -18.5h-29q8 -55 8 -103q0 -80 -51 -132t-113 -52q-78 0 -161.5 82t-83.5 164q0 141 256 157q-33 133 -95.5 274.5t-93.5 141.5 q-29 0 -41 -14t-18 -47q-92 -457 -211 -697q-12 -27 -17.5 -35t-16.5 -17t-30 -9q-61 0 -61 61zM246 1221q0 61 61 61q33 0 68 -29.5t35 -64.5q0 -29 -28 -45.5t-58 -16.5q-35 0 -56.5 30t-21.5 65zM532 246q0 -31 46.5 -77t76.5 -46q41 0 41 61q0 51 -8 99 q-156 -10 -156 -37zM614 1159q0 61 62 62q33 0 67.5 -30t34.5 -65q0 -29 -27.5 -45t-58.5 -16q-35 0 -56.5 29.5t-21.5 64.5z" />
<glyph unicode="&#xc5;" d="M82 59q0 10 4 35q25 213 94.5 490.5t116.5 378.5q23 47 57 79q-49 25 -78.5 70t-29.5 100q0 84 51 140.5t133 56.5q86 0 145.5 -51t59.5 -133q0 -57 -24.5 -105.5t-67.5 -75.5q23 -25 45 -81q12 -31 29.5 -104t44 -186.5t49.5 -199.5q18 2 47 6q37 4 41 4q29 0 45 -17 t16 -44q0 -55 -61 -62q-33 -4 -56 -8q68 -229 146 -370q12 -23 12 -43q0 -61 -61 -62q-33 0 -62 49q-80 143 -160 416q-29 -2 -65 -2q-188 0 -295 31q-41 -205 -53 -310q-6 -61 -62 -61q-61 0 -61 59zM285 494q96 -31 268 -31h33q-25 92 -56.5 234.5t-49 204t-29.5 61.5 q-27 0 -73 -135t-93 -334zM369 1212q0 -29 24.5 -49t57.5 -20q29 0 45 24.5t16 57.5q0 29 -24.5 45t-57.5 16q-61 0 -61 -74z" />
<glyph unicode="&#xc6;" horiz-adv-x="1392" d="M82 61q0 6 2 14.5t2 10.5l240 938q43 176 182 176q37 0 74 -22q47 -35 69 -101q27 -88 62 -246q49 176 139 272.5t213 96.5q66 0 123 -31q61 -35 61 -71q0 -61 -61 -62q-18 0 -54 20.5t-69 20.5q-115 0 -189.5 -153.5t-84.5 -415.5h356q61 0 61 -61.5t-61 -61.5h-354 q14 -100 80.5 -181t146.5 -81q43 0 93 13.5t71 27.5q37 20 65 20q61 0 62 -57q0 -6 -3 -13.5t-7.5 -12.5t-11.5 -11t-12 -9t-14.5 -10.5t-13.5 -9.5q-27 -18 -94.5 -39.5t-134.5 -21.5q-127 0 -223 106q-31 -106 -133 -106q-72 0 -133.5 85t-87 162t-25.5 97q0 86 68.5 125 t160.5 39q-92 569 -139 569q-45 0 -66 -84l-237 -932q-8 -33 -21.5 -47t-40.5 -14q-61 0 -61 61zM541 344q0 -37 48 -129t75 -92q20 0 20 67q0 92 -20 195q-123 0 -123 -41z" />
<glyph unicode="&#xc7;" d="M82 492q0 133 32.5 256.5t94 226t161 164t224.5 61.5q66 0 123 -31q27 -14 44 -34.5t17 -36.5q0 -61 -61 -62q-18 0 -54 20.5t-69 20.5q-96 0 -174 -53t-123 -139t-68.5 -187.5t-23.5 -205.5q0 -90 29.5 -172t92 -139.5t144.5 -57.5q152 0 320 84q37 18 49 18 q61 0 61 -61q0 -25 -12 -38t-49 -32q-125 -61 -246 -84v-12q0 -49 61 -111q102 -102 103 -217q0 -49 -20.5 -86t-59.5 -59.5t-76 -34.5t-86 -22q-10 -2 -24 -3q-61 0 -62 62q0 29 14.5 42t47.5 19l19 4q19 4 27.5 5.5t27 6.5t27.5 11t20.5 13t16.5 18.5t5 23.5 q0 43 -17.5 72t-60.5 72q-33 33 -59.5 83t-26.5 101v2q-119 0 -209 72.5t-135 183.5t-45 236z" />
<glyph unicode="&#xc8;" d="M82 840q0 61 61 61h43q10 41 60 41q51 0 59 -39q342 6 514 37q16 2 21 2q61 0 61 -61q0 -49 -61 -62q-182 -33 -535 -39l-8 -270q90 -29 469 -29q61 0 61 -61.5t-61 -61.5q-354 0 -473 25q-6 -186 -6 -322q0 -61 -61.5 -61t-61.5 61q0 336 -31 533q-8 53 -18.5 96 t-18.5 65.5t-8 24.5q-6 37 -6 60zM307 102q0 59 62 60q18 0 43 -8q82 -27 202 -31q88 0 185 14q33 4 41 4q61 0 61 -61q0 -25 -18.5 -41t-42.5 -21q-152 -18 -226 -18q-129 0 -245 39q-62 20 -62 63zM328 1348q0 61 61 61q31 0 66 -53q86 -129 155 -172q45 -31 45 -58 q0 -61 -61 -61q-27 0 -51 16q-92 61 -191 209q-24 38 -24 58z" />
<glyph unicode="&#xc9;" d="M82 840q0 61 61 61h43q10 41 60 41q51 0 59 -39q342 6 514 37q16 2 21 2q61 0 61 -61q0 -49 -61 -62q-182 -33 -535 -39l-8 -270q90 -29 469 -29q61 0 61 -61.5t-61 -61.5q-354 0 -473 25q-6 -186 -6 -322q0 -61 -61.5 -61t-61.5 61q0 336 -31 533q-8 53 -18.5 96 t-18.5 65.5t-8 24.5q-6 37 -6 60zM307 102q0 59 62 60q18 0 43 -8q82 -27 202 -31q88 0 185 14q33 4 41 4q61 0 61 -61q0 -25 -18.5 -41t-42.5 -21q-152 -18 -226 -18q-129 0 -245 39q-62 20 -62 63zM479 1126q0 27 45 58q31 20 58 47q55 55 98 125q35 53 65 53q61 0 62 -61 q0 -20 -25 -58q-70 -100 -118 -149q-33 -31 -72 -60q-25 -16 -51 -16q-62 0 -62 61z" />
<glyph unicode="&#xca;" d="M82 840q0 61 61 61h43q10 41 60 41q51 0 59 -39q342 6 514 37q16 2 21 2q61 0 61 -61q0 -49 -61 -62q-182 -33 -535 -39l-8 -270q90 -29 469 -29q61 0 61 -61.5t-61 -61.5q-354 0 -473 25q-6 -186 -6 -322q0 -61 -61.5 -61t-61.5 61q0 336 -31 533q-8 53 -18.5 96 t-18.5 65.5t-8 24.5q-6 37 -6 60zM246 1126q0 27 61 88l33 33l34 34q7 7 30.5 28.5t32.5 29t30.5 22.5t35 20t34 13.5t39 11.5t38.5 3q49 0 88 -29.5t61.5 -78t34 -82t17.5 -68.5q4 -14 4 -25q0 -61 -59 -61q-51 0 -64 61q-10 49 -32.5 104.5t-49.5 55.5q-43 0 -87 -34.5 t-134 -125.5q-61 -61 -86 -61q-61 0 -61 61zM307 102q0 59 62 60q18 0 43 -8q82 -27 202 -31q88 0 185 14q33 4 41 4q61 0 61 -61q0 -25 -18.5 -41t-42.5 -21q-152 -18 -226 -18q-129 0 -245 39q-62 20 -62 63z" />
<glyph unicode="&#xcb;" d="M82 840q0 61 61 61h43q10 41 60 41q51 0 59 -39q342 6 514 37q16 2 21 2q61 0 61 -61q0 -49 -61 -62q-182 -33 -535 -39l-8 -270q90 -29 469 -29q61 0 61 -61.5t-61 -61.5q-354 0 -473 25q-6 -186 -6 -322q0 -61 -61.5 -61t-61.5 61q0 336 -31 533q-8 53 -18.5 96 t-18.5 65.5t-8 24.5q-6 37 -6 60zM307 102q0 59 62 60q18 0 43 -8q82 -27 202 -31q88 0 185 14q33 4 41 4q61 0 61 -61q0 -25 -18.5 -41t-42.5 -21q-152 -18 -226 -18q-129 0 -245 39q-62 20 -62 63zM328 1221q0 61 61 61q33 0 68 -29.5t35 -64.5q0 -29 -28 -45.5t-58 -16.5 q-35 0 -56.5 30t-21.5 65zM696 1159q0 61 62 62q33 0 67.5 -30t34.5 -65q0 -29 -27.5 -45t-58.5 -16q-35 0 -56.5 29.5t-21.5 64.5z" />
<glyph unicode="&#xcc;" horiz-adv-x="737" d="M246 1348q0 61 61 61q35 0 66 -61q37 -74 107.5 -154t113.5 -115q61 -49 61 -75q0 -61 -61 -62q-25 0 -76 41q-57 47 -133 134t-121 175q-18 38 -18 56zM287 799q0 61 61.5 61t61.5 -61q0 -219 18 -514q4 -53 39 -195q4 -20 4 -29q0 -61 -61 -61q-45 0 -62 61 q-39 160 -43 207q-18 295 -18 531z" />
<glyph unicode="&#xcd;" horiz-adv-x="737" d="M246 799q0 61 61.5 61t61.5 -61q0 -219 18 -514q4 -53 39 -195q4 -20 4 -29q0 -61 -61 -61q-45 0 -62 61q-39 160 -43 207q-18 295 -18 531zM328 983q0 23 22 45q102 102 178 320q18 61 66 61q61 0 61 -61q0 -10 -10 -41q-82 -240 -207 -365q-20 -20 -49 -20 q-61 0 -61 61z" />
<glyph unicode="&#xce;" horiz-adv-x="737" d="M82 1126q0 27 61 88l33 33l34 34q7 7 30.5 28.5t33 29t31 22.5t34.5 20t33.5 13.5t39 11.5t39.5 3q49 0 88 -29.5t61.5 -78t33.5 -82t17 -68.5q4 -14 4 -25q0 -61 -59 -61q-51 0 -64 61q-10 49 -32.5 104.5t-48.5 55.5q-43 0 -87.5 -34.5t-134.5 -125.5q-61 -61 -86 -61 q-61 0 -61 61zM246 799q0 61 61.5 61t61.5 -61q0 -219 18 -514q4 -53 39 -195q4 -20 4 -29q0 -61 -61 -61q-45 0 -62 61q-39 160 -43 207q-18 295 -18 531z" />
<glyph unicode="&#xcf;" horiz-adv-x="737" d="M123 1221q0 61 61 61q33 0 68 -29.5t35 -64.5q0 -29 -28 -45.5t-58 -16.5q-35 0 -56.5 30t-21.5 65zM246 799q0 61 61.5 61t61.5 -61q0 -219 18 -514q4 -53 39 -195q4 -20 4 -29q0 -61 -61 -61q-45 0 -62 61q-39 160 -43 207q-18 295 -18 531zM492 1282q0 61 61 61 q33 0 67.5 -29.5t34.5 -64.5q0 -29 -27.5 -45t-58.5 -16q-35 0 -56 29.5t-21 64.5z" />
<glyph unicode="&#xd0;" horiz-adv-x="1146" d="M82 633q0 55 61 63l103 15q6 164 41 288q14 51 60 102.5t120 76.5q68 23 168 22q160 0 295 -119.5t135 -257.5q0 -111 -39 -206t-113.5 -172.5t-146.5 -136t-173 -133.5t-157 -126q-8 -6 -21 -19l-20 -20q-6 -6 -17 -13t-20.5 -9t-21.5 -2q-61 0 -62 63q0 23 62 78 q68 61 199 160.5t205.5 161t138 162t63.5 208.5q0 90 -102.5 174t-204.5 84q-80 0 -125 -16q-88 -31 -109 -111q-29 -113 -30 -225q131 12 182 12q61 0 61 -61q0 -27 -16 -44.5t-45 -17.5q-53 0 -184 -12q4 -211 24 -285q4 -25 4 -30q0 -61 -61 -62q-31 0 -43 13.5t-21 48.5 q-20 92 -26 301l-82 -13q-4 0 -10.5 -1t-10.5 -1q-61 1 -61 60z" />
<glyph unicode="&#xd1;" d="M82 143q0 266 57 553q35 184 168 185q66 0 121 -51.5t64 -133.5q0 -2 4 -50t8 -91t12 -108.5t17.5 -118t21.5 -101.5t27.5 -76.5t31.5 -27.5q43 0 83 222t40 392q0 70 37 144q31 61 66 61q61 0 61 -61q0 -16 -16 -50q-25 -49 -25 -94q0 -152 -26.5 -323.5t-67.5 -290.5 q-20 -57 -61 -90t-91 -33q-47 0 -89 33t-62 90q-16 49 -30.5 109.5t-24 113.5t-16.5 112.5t-10 97.5t-6 75t-3 41q-4 35 -20.5 60.5t-45.5 25.5q-31 0 -47 -82q-55 -276 -55 -533q0 -45 16 -110q4 -16 4 -33q0 -61 -61 -61q-45 0 -62 61q-20 82 -20 143zM246 1249 q0 25 61 86q74 74 185 74q59 0 146 -39t99 -39q35 0 63.5 10.5t39.5 10.5q61 0 61 -62q0 -37 -46 -59.5t-118 -22.5q-45 0 -128 39t-117 39q-59 0 -97 -37q-61 -61 -88 -61q-61 0 -61 61z" />
<glyph unicode="&#xd2;" d="M82 430q0 104 43 215t126 188.5t179 77.5q33 0 66 -4q10 2 29.5 12.5t44 16.5t59.5 6q119 0 195.5 -121t76.5 -248q0 -221 -127 -397t-323 -176q-164 0 -266.5 115.5t-102.5 314.5zM205 430q0 -150 65.5 -228.5t180.5 -78.5q145 0 236 141.5t91 308.5q0 88 -44 167 t-105 79q-33 0 -72 -18.5t-57 -18.5q-31 6 -70 6q-90 0 -157.5 -123.5t-67.5 -234.5zM492 1348q0 61 61 61q31 0 65 -53q86 -129 156 -172q45 -31 45 -58q0 -61 -61 -61q-27 0 -51 16q-92 61 -191 209q-24 38 -24 58z" />
<glyph unicode="&#xd3;" d="M82 430q0 104 43 215t126 188.5t179 77.5q33 0 66 -4q10 2 29.5 12.5t44 16.5t59.5 6q119 0 195.5 -121t76.5 -248q0 -221 -127 -397t-323 -176q-164 0 -266.5 115.5t-102.5 314.5zM205 430q0 -150 65.5 -228.5t180.5 -78.5q145 0 236 141.5t91 308.5q0 88 -44 167 t-105 79q-33 0 -72 -18.5t-57 -18.5q-31 6 -70 6q-90 0 -157.5 -123.5t-67.5 -234.5zM492 1126q0 27 45 58q31 20 57 47q55 55 98 125q35 53 66 53q61 0 61 -61q0 -20 -24 -58q-70 -100 -119 -149q-33 -31 -72 -60q-25 -16 -51 -16q-61 0 -61 61z" />
<glyph unicode="&#xd4;" d="M82 430q0 104 43 215t126 188.5t179 77.5q33 0 66 -4q10 2 29.5 12.5t44 16.5t59.5 6q119 0 195.5 -121t76.5 -248q0 -221 -127 -397t-323 -176q-164 0 -266.5 115.5t-102.5 314.5zM205 430q0 -150 65.5 -228.5t180.5 -78.5q145 0 236 141.5t91 308.5q0 88 -44 167 t-105 79q-33 0 -72 -18.5t-57 -18.5q-31 6 -70 6q-90 0 -157.5 -123.5t-67.5 -234.5zM246 1126q0 27 61 88l33 33l34 34q7 7 30.5 28.5t32.5 29t30.5 22.5t35 20t34 13.5t39 11.5t38.5 3q49 0 88 -29.5t61.5 -78t34 -82t17.5 -68.5q4 -14 4 -25q0 -61 -59 -61q-51 0 -64 61 q-10 49 -32.5 104.5t-49.5 55.5q-43 0 -87 -34.5t-134 -125.5q-61 -61 -86 -61q-61 0 -61 61z" />
<glyph unicode="&#xd5;" d="M82 430q0 104 43 215t126 188.5t179 77.5q33 0 66 -4q10 2 29.5 12.5t44 16.5t59.5 6q119 0 195.5 -121t76.5 -248q0 -221 -127 -397t-323 -176q-164 0 -266.5 115.5t-102.5 314.5zM205 430q0 -150 65.5 -228.5t180.5 -78.5q145 0 236 141.5t91 308.5q0 88 -44 167 t-105 79q-33 0 -72 -18.5t-57 -18.5q-31 6 -70 6q-90 0 -157.5 -123.5t-67.5 -234.5zM225 1249q0 25 62 86q74 74 184 74q59 0 146.5 -39t99.5 -39q35 0 63.5 10.5t38.5 10.5q61 0 62 -62q0 -37 -46.5 -59.5t-117.5 -22.5q-45 0 -128 39t-118 39q-59 0 -96 -37 q-61 -61 -88 -61q-62 0 -62 61z" />
<glyph unicode="&#xd6;" d="M82 430q0 104 43 215t126 188.5t179 77.5q33 0 66 -4q10 2 29.5 12.5t44 16.5t59.5 6q119 0 195.5 -121t76.5 -248q0 -221 -127 -397t-323 -176q-164 0 -266.5 115.5t-102.5 314.5zM205 430q0 -150 65.5 -228.5t180.5 -78.5q145 0 236 141.5t91 308.5q0 88 -44 167 t-105 79q-33 0 -72 -18.5t-57 -18.5q-31 6 -70 6q-90 0 -157.5 -123.5t-67.5 -234.5zM246 1221q0 61 61 61q33 0 68 -29.5t35 -64.5q0 -29 -28 -45.5t-58 -16.5q-35 0 -56.5 30t-21.5 65zM614 1159q0 61 62 62q33 0 67.5 -30t34.5 -65q0 -29 -27.5 -45t-58.5 -16 q-35 0 -56.5 29.5t-21.5 64.5z" />
<glyph unicode="&#xd7;" horiz-adv-x="655" d="M82 184q0 29 61 90l82 82q-20 29 -86 160q-16 33 -16 57q0 61 61 62q31 0 62 -62q6 -14 16 -38.5t21.5 -47t27.5 -45.5l111 111q61 61 90 61q61 0 61 -61q0 -23 -67 -90l-111 -111q45 -39 97 -65q61 -31 61 -62q0 -61 -61 -61q-29 0 -58 14q-74 37 -125 88l-82 -82 q-10 -12 -41.5 -36.5t-42.5 -24.5q-61 0 -61 61z" />
<glyph unicode="&#xd8;" horiz-adv-x="1187" d="M82 553q0 72 28.5 171t78 198.5t131 169t176.5 69.5q37 0 77 -4q47 37 138 43q25 111 32 152q6 31 19.5 44t44.5 13q59 0 59 -61q0 -12 -16 -95l-12 -53q88 -20 150.5 -99t90 -173t27.5 -191q0 -199 -52.5 -347t-139.5 -230t-185 -121t-207 -39h-55q-6 -20 -25.5 -96 t-25.5 -97q-18 -61 -62 -61q-61 0 -61 61q0 31 20 107q8 33 33 115q-264 94 -264 524zM205 553q0 -338 182 -408q190 559 285 906q-29 -25 -54 -25q-4 0 -10 1t-14 3t-14 2q-37 6 -84 6q-78 0 -147.5 -92t-106.5 -203.5t-37 -189.5zM510 123q131 0 226 50t147.5 140 t76 194.5t23.5 229.5q0 113 -47 218.5t-129 121.5q-96 -372 -297 -954z" />
<glyph unicode="&#xd9;" d="M82 737q0 61 61.5 61.5t61.5 -61.5q0 -311 43 -463q18 -68 58 -109.5t87 -41.5q92 0 169 80t130 215q86 219 86 463q0 61 61.5 61t61.5 -61q0 -264 -98 -510q-68 -168 -171.5 -269.5t-238.5 -101.5q-90 0 -161.5 67.5t-102.5 178.5q-47 163 -47 491zM246 1346q0 63 61 63 q25 0 99 -61q43 -35 118.5 -122t116.5 -169q14 -27 14 -49q0 -61 -61 -62q-35 0 -66 62q-72 141 -221 262q-61 49 -61 76z" />
<glyph unicode="&#xda;" d="M82 737q0 61 61.5 61.5t61.5 -61.5q0 -311 43 -463q18 -68 58 -109.5t87 -41.5q92 0 169 80t130 215q86 219 86 463q0 61 61.5 61t61.5 -61q0 -264 -98 -510q-68 -168 -171.5 -269.5t-238.5 -101.5q-90 0 -161.5 67.5t-102.5 178.5q-47 163 -47 491zM246 1036q0 8 2 15.5 t7 15.5t9 13t16.5 18.5t18.5 21.5q188 213 346 277q31 12 51 12q61 0 62 -61q0 -16 -19.5 -35t-42.5 -27q-70 -29 -162 -106.5t-145 -143.5q-53 -61 -82 -61q-61 0 -61 61z" />
<glyph unicode="&#xdb;" d="M82 737q0 61 61.5 61.5t61.5 -61.5q0 -311 43 -463q18 -68 58 -109.5t87 -41.5q92 0 169 80t130 215q86 219 86 463q0 61 61.5 61t61.5 -61q0 -264 -98 -510q-68 -168 -171.5 -269.5t-238.5 -101.5q-90 0 -161.5 67.5t-102.5 178.5q-47 163 -47 491zM164 1126q0 27 61 88 l33 33l34 34q7 7 30.5 28.5t33 29t31 22.5t34.5 20t33.5 13.5t39 11.5t38.5 3q49 0 88 -29.5t62 -78t34 -82t17 -68.5q4 -14 4 -25q0 -61 -59 -61q-51 0 -64 61q-10 49 -32.5 104.5t-49.5 55.5q-43 0 -87 -34.5t-134 -125.5q-61 -61 -86 -61q-61 0 -61 61z" />
<glyph unicode="&#xdc;" d="M82 737q0 61 61.5 61.5t61.5 -61.5q0 -311 43 -463q18 -68 58 -109.5t87 -41.5q92 0 169 80t130 215q86 219 86 463q0 61 61.5 61t61.5 -61q0 -264 -98 -510q-68 -168 -171.5 -269.5t-238.5 -101.5q-90 0 -161.5 67.5t-102.5 178.5q-47 163 -47 491zM164 1221q0 61 61 61 q33 0 68 -29.5t35 -64.5q0 -29 -28 -45.5t-58 -16.5q-35 0 -56.5 30t-21.5 65zM532 1159q0 61 62 62q33 0 67.5 -30t34.5 -65q0 -29 -27.5 -45t-58.5 -16q-35 0 -56.5 29.5t-21.5 64.5z" />
<glyph unicode="&#xdd;" d="M82 881q0 61 59 61q23 0 64 -49q8 -8 55 -69.5t77 -91.5t90 -61.5t126 -31.5q57 0 126 43t97 104q27 61 64 62q61 0 61 -62q0 -109 -67 -270l-183 -461q-23 -55 -63 -55q-61 0 -62 61q0 10 15 50l176 450q-76 -45 -164 -45q-45 0 -88 10.5t-76 22.5t-68.5 38.5t-56 43 t-51.5 52.5t-40 48t-35.5 49t-28.5 39q-6 6 -16.5 29t-10.5 33zM410 1036q0 8 2 15.5t7 15.5t9 13t16.5 18.5t18.5 21.5q188 213 346 277q31 12 51 12q61 0 62 -61q0 -16 -19.5 -35t-42.5 -27q-70 -29 -162 -106.5t-145 -143.5q-53 -61 -82 -61q-61 0 -61 61z" />
<glyph unicode="&#xde;" horiz-adv-x="1085" d="M82 897v451q0 61 61.5 61t61.5 -61v-220q57 37 151 54q123 18 258 18q164 0 277 -102.5t113 -257.5q0 -78 -63.5 -135.5t-146.5 -85t-186.5 -44t-156 -19.5t-82.5 -3q-41 0 -97 16q96 -412 97 -508q0 -61 -61.5 -61t-61.5 61q0 25 -82 400t-82 436zM205 897 q0 -47 22 -123q29 -98 142 -98q31 0 100.5 7t168.5 22.5t171 51.5t72 83q0 100 -74 168.5t-193 68.5q-123 0 -245 -18q-68 -10 -108 -44t-48 -61.5t-8 -56.5z" />
<glyph unicode="&#xdf;" d="M82 266q0 168 17.5 316.5t59.5 296t127 234.5t206 87q98 0 151 -91t53 -187q0 -172 -75 -277q129 -10 204.5 -86t75.5 -211q0 -86 -51 -145.5t-133 -59.5q-164 0 -246 41q-35 16 -48 28.5t-13 33.5q0 61 61 61q23 0 53 -12q80 -29 193 -29q31 0 46 23.5t15 58.5 q0 184 -205 184q-31 0 -71.5 -20t-71.5 -20q-61 0 -61 61q0 4 1 9t4 9t5 7.5t7 7.5t8 6l9 6l10 6l9 6q6 4 8 4q143 88 143 308q0 55 -25.5 105t-55.5 50q-78 0 -135.5 -71.5t-89 -192.5t-47 -258t-15.5 -289q0 -395 137 -807q6 -18 6 -37q0 -25 -16.5 -43t-44.5 -18 q-18 0 -30.5 9t-18 19.5t-13.5 32.5q-143 430 -143 844z" />
<glyph unicode="&#xe0;" d="M82 205q0 219 155.5 375.5t315.5 156.5q88 0 146.5 -43t58.5 -80q0 -61 -62 -61q-16 0 -31.5 15.5t-42 30.5t-69.5 15q-106 0 -227 -120.5t-121 -288.5q0 -37 22.5 -59.5t59.5 -22.5q82 0 160.5 55t99.5 98q55 113 98 113q27 0 49.5 -24.5t53.5 -88.5q92 -184 92 -215 q0 -61 -62 -61q-20 0 -32.5 13.5t-28.5 47.5l-72 144q-27 -53 -131 -129t-227 -76q-90 0 -147.5 57.5t-57.5 147.5zM492 1348q0 61 61 61q35 0 65 -61q37 -74 108 -154t114 -115q61 -49 61 -75q0 -61 -61 -62q-25 0 -76 41q-57 47 -133 134t-121 175q-18 38 -18 56z" />
<glyph unicode="&#xe1;" d="M82 225q0 197 134 354.5t321 157.5q92 0 158.5 -33.5t66.5 -68.5q0 -61 -62 -62q-12 0 -59 20.5t-104 20.5q-137 0 -234.5 -120.5t-97.5 -268.5q0 -31 25.5 -56.5t56.5 -25.5q86 0 167 44t116.5 83t62.5 76q20 31 38.5 65.5t28 46t21.5 11.5q49 0 70.5 -27.5t35.5 -97.5 q2 -10 6.5 -28.5t6.5 -29t6 -26.5t7 -26.5t7 -22.5t8 -19.5t9.5 -14.5t11.5 -10t12 -3q12 0 37 6l25 8q18 6 24 6q61 0 62 -61q0 -45 -43 -60l-19 -6q-43 -16 -86 -16q-137 0 -180 219q-39 -68 -160 -154t-274 -86q-82 0 -143.5 61.5t-61.5 143.5zM328 1036q0 8 2 15.5 t7 15.5t9 13t16.5 18.5t18.5 21.5q188 213 346 277q31 12 51 12q61 0 62 -61q0 -16 -19.5 -35t-42.5 -27q-70 -29 -162 -106.5t-145 -143.5q-53 -61 -82 -61q-61 0 -61 61z" />
<glyph unicode="&#xe2;" d="M82 266q0 182 121 326.5t293 144.5q102 0 180 -39q43 -23 55 -43q74 0 74 -61q0 -25 -14 -53q-74 -123 -74 -295q0 -45 28.5 -74t73.5 -29q39 0 119 27l25 8q18 6 24 6q61 0 62 -61q0 -45 -43 -60l-19 -6q-111 -37 -168 -37q-88 0 -150.5 55.5t-72.5 141.5 q-131 -176 -289 -176q-96 0 -160.5 64.5t-64.5 160.5zM164 1044q0 31 61 89q18 18 56 55t52.5 52t44.5 43t43 39t37.5 29.5t40 25.5t36 16.5t40 12.5t39.5 3q29 0 54.5 -11.5t43 -27.5t33 -43t24.5 -48.5t18.5 -54t13.5 -49t9 -44t5 -29.5q4 -14 4 -25q0 -61 -59 -61 q-51 0 -64 61q-41 209 -82 209q-43 0 -97 -45t-206 -197l-12 -12q-8 -8 -12 -11t-11 -9l-9 -10q-3 -3 -9 -7t-9 -5t-7 -3t-8.5 -3t-8.5 -1q-61 0 -61 61zM205 266q0 -45 28.5 -73.5t73.5 -28.5q39 0 78 22.5t66.5 49t59.5 76.5t45 76t38 79l27 51q6 10 16 31l14 29 q-6 2 -31.5 13t-54 17t-69.5 6q-119 0 -205 -109.5t-86 -238.5z" />
<glyph unicode="&#xe3;" d="M82 266q0 182 121 326.5t293 144.5q102 0 180 -39q43 -23 55 -43q74 0 74 -61q0 -25 -14 -53q-74 -123 -74 -295q0 -45 28.5 -74t73.5 -29q39 0 119 27l25 8q18 6 24 6q61 0 62 -61q0 -45 -43 -60l-19 -6q-111 -37 -168 -37q-88 0 -150.5 55.5t-72.5 141.5 q-131 -176 -289 -176q-96 0 -160.5 64.5t-64.5 160.5zM164 1249q0 27 24 51q72 72 185 72q61 0 128.5 -41t92.5 -41q82 0 100 58q20 61 64 61q61 0 61 -61q0 -20 -4 -33q-23 -66 -81 -107t-140 -41q-61 0 -129 41t-92 41q-61 0 -101 -39q-23 -23 -47 -22q-61 0 -61 61z M205 266q0 -45 28.5 -73.5t73.5 -28.5q39 0 78 22.5t66.5 49t59.5 76.5t45 76t38 79l27 51q6 10 16 31l14 29q-6 2 -31.5 13t-54 17t-69.5 6q-119 0 -205 -109.5t-86 -238.5z" />
<glyph unicode="&#xe4;" d="M82 225q0 197 134 354.5t321 157.5q92 0 158.5 -33.5t66.5 -68.5q0 -61 -62 -62q-12 0 -59 20.5t-104 20.5q-137 0 -234.5 -120.5t-97.5 -268.5q0 -31 25.5 -56.5t56.5 -25.5q86 0 167 44t116.5 83t62.5 76q20 31 38.5 65.5t28 46t21.5 11.5q49 0 70.5 -27.5t35.5 -97.5 q2 -10 6.5 -28.5t6.5 -29t6 -26.5t7 -26.5t7 -22.5t8 -19.5t9.5 -14.5t11.5 -10t12 -3q12 0 37 6l25 8q18 6 24 6q61 0 62 -61q0 -45 -43 -60l-19 -6q-43 -16 -86 -16q-137 0 -180 219q-39 -68 -160 -154t-274 -86q-82 0 -143.5 61.5t-61.5 143.5zM246 1221q0 61 61 61 q33 0 68 -29.5t35 -64.5q0 -29 -28 -45.5t-58 -16.5q-35 0 -56.5 30t-21.5 65zM614 1159q0 61 62 62q33 0 67.5 -30t34.5 -65q0 -29 -27.5 -45t-58.5 -16q-35 0 -56.5 29.5t-21.5 64.5z" />
<glyph unicode="&#xe5;" d="M82 225q0 197 134 354.5t321 157.5q92 0 158.5 -33.5t66.5 -68.5q0 -61 -62 -62q-12 0 -59 20.5t-104 20.5q-137 0 -234.5 -120.5t-97.5 -268.5q0 -31 25.5 -56.5t56.5 -25.5q86 0 167 44t116.5 83t62.5 76q20 31 38.5 65.5t28 46t21.5 11.5q49 0 70.5 -27.5t35.5 -97.5 q2 -10 6.5 -28.5t6.5 -29t6 -26.5t7 -26.5t7 -22.5t8 -19.5t9.5 -14.5t11.5 -10t12 -3q12 0 37 6l25 8q18 6 24 6q61 0 62 -61q0 -45 -43 -60l-19 -6q-43 -16 -86 -16q-137 0 -180 219q-39 -68 -160 -154t-274 -86q-82 0 -143.5 61.5t-61.5 143.5zM246 1147 q0 113 61.5 187.5t163.5 74.5q94 0 170 -81t76 -181q0 -88 -59.5 -146.5t-186.5 -58.5q-98 0 -161.5 64.5t-63.5 140.5zM369 1147q0 -35 30.5 -58.5t71.5 -23.5q39 0 61.5 4t42 22.5t19.5 55.5q0 47 -37 93t-86 46q-45 0 -73.5 -39t-28.5 -100z" />
<glyph unicode="&#xe6;" horiz-adv-x="1597" d="M82 205q0 133 95 260t224 199.5t234 72.5q90 0 147.5 -33.5t57.5 -68.5q0 -61 -62 -62q-12 0 -49 20.5t-94 20.5q-66 0 -165 -53t-182 -152.5t-83 -203.5q0 -31 24.5 -56.5t57.5 -25.5q150 0 301 219q16 23 33.5 52.5t26.5 43t21.5 23.5t26.5 10q37 0 54.5 -25.5 t33.5 -99.5q16 -80 35 -80q10 0 82 15q0 174 71.5 274t174.5 100q82 0 143.5 -61.5t61.5 -142.5q0 -162 -285 -254q72 -74 244 -74q100 0 241 47l25 8q18 6 25 6q61 0 61 -61q0 -45 -43 -60l-18 -6q-172 -57 -291 -57t-221.5 39t-151.5 123q-94 -18 -119 -19q-59 0 -95 41 t-44 76q-23 -39 -71 -92t-140 -110.5t-182 -57.5q-82 0 -143.5 61.5t-61.5 143.5zM1026 311q203 66 203 140q0 31 -25.5 56t-56.5 25q-43 0 -82 -59.5t-39 -161.5z" />
<glyph unicode="&#xe7;" horiz-adv-x="819" d="M123 297q0 168 96 283.5t252 115.5q84 0 166 -41q59 -29 59 -61q0 -61 -61 -62q-27 0 -51 13q-57 29 -113 28q-106 0 -165.5 -79.5t-59.5 -196.5q0 -55 42 -100t102.5 -80t120.5 -74t102 -102.5t42 -145.5q0 -94 -66.5 -137t-174.5 -66q-10 -2 -25 -2q-61 0 -61 62 q0 29 14 42t47 19l21 4q18 4 26 5.5t26.5 6.5t28 11t20.5 13t16 18.5t5 23.5q0 55 -41.5 100.5t-102 80t-121 73.5t-102.5 102.5t-42 145.5z" />
<glyph unicode="&#xe8;" horiz-adv-x="819" d="M-66 121q0 43 46 57l18 6q31 10 131 64q-6 31 -6 63q0 160 67.5 272.5t178.5 112.5q92 0 148 -59t56 -145q0 -80 -76.5 -149t-207.5 -148q72 -72 243 -72q100 0 242 47l25 8q18 6 24 6q61 0 62 -61q0 -45 -43 -60l-19 -6q-172 -57 -291 -57q-104 0 -205.5 35t-146.5 100 q-115 -57 -121 -59l-36 -13q-12 -4 -27 -4q-62 1 -62 62zM246 313q51 31 76.5 47.5t61.5 43t51.5 48t15.5 40.5q0 33 -22.5 57t-59.5 24q-47 0 -85 -77t-38 -183zM369 1348q0 61 61 61q35 0 66 -61q37 -74 107.5 -154t113.5 -115q61 -49 61 -75q0 -61 -61 -62q-25 0 -76 41 q-57 47 -133 134t-121 175q-18 38 -18 56z" />
<glyph unicode="&#xe9;" horiz-adv-x="819" d="M-66 121q0 43 46 57l18 6q31 10 131 64q-6 31 -6 63q0 160 67.5 272.5t178.5 112.5q92 0 148 -59t56 -145q0 -80 -76.5 -149t-207.5 -148q72 -72 243 -72q100 0 242 47l25 8q18 6 24 6q61 0 62 -61q0 -45 -43 -60l-19 -6q-172 -57 -291 -57q-104 0 -205.5 35t-146.5 100 q-115 -57 -121 -59l-36 -13q-12 -4 -27 -4q-62 1 -62 62zM246 313q51 31 76.5 47.5t61.5 43t51.5 48t15.5 40.5q0 33 -22.5 57t-59.5 24q-47 0 -85 -77t-38 -183zM492 983q0 23 22 45q102 102 178 320q18 61 66 61q61 0 61 -61q0 -10 -10 -41q-82 -240 -207 -365 q-20 -20 -49 -20q-61 0 -61 61z" />
<glyph unicode="&#xea;" horiz-adv-x="819" d="M-66 121q0 43 46 57l18 6q31 10 131 64q-6 31 -6 63q0 160 67.5 272.5t178.5 112.5q92 0 148 -59t56 -145q0 -80 -76.5 -149t-207.5 -148q72 -72 243 -72q100 0 242 47l25 8q18 6 24 6q61 0 62 -61q0 -45 -43 -60l-19 -6q-172 -57 -291 -57q-104 0 -205.5 35t-146.5 100 q-115 -57 -121 -59l-36 -13q-12 -4 -27 -4q-62 1 -62 62zM96 881q0 31 62 88q18 18 56 55t52.5 52.5t44 43t43 38.5t38 29.5t39.5 26t35.5 16.5t40 12t40.5 3q29 0 54.5 -11t43 -27.5t32.5 -43t24.5 -48t18.5 -54.5t13 -49.5t9.5 -44t5.5 -29.5q4 -14 4 -25q0 -61 -60 -61 q-51 0 -63 61q-41 209 -82 209q-43 0 -98.5 -45t-204.5 -196l-13 -13q-8 -8 -12 -11t-10 -9l-9 -9q-3 -3 -9.5 -7.5t-9.5 -5.5t-7 -3t-8 -3t-8 -1q-62 1 -62 62zM246 313q51 31 76.5 47.5t61.5 43t51.5 48t15.5 40.5q0 33 -22.5 57t-59.5 24q-47 0 -85 -77t-38 -183z" />
<glyph unicode="&#xeb;" horiz-adv-x="819" d="M-66 121q0 39 46 57l18 6q78 27 102 37q-18 49 -18 109q0 168 96 287.5t252 119.5q225 0 225 -205q0 -96 -103 -189t-261 -171q76 -49 201 -49q141 0 282 47l25 8q18 6 24 6q61 0 62 -61q0 -45 -43 -60l-19 -6q-172 -57 -331 -57q-213 0 -326 115q-31 -14 -107 -39 l-36 -13q-12 -4 -27 -4q-62 1 -62 62zM82 1159q0 61 61 62q33 0 68 -30t35 -65q0 -29 -28 -45t-58 -16q-35 0 -56.5 29.5t-21.5 64.5zM205 330q0 -35 8 -58q137 66 228 136.5t91 123.5q0 47 -20 64.5t-82 17.5q-104 0 -164.5 -82.5t-60.5 -201.5zM451 1098q0 61 61 61 q33 0 67.5 -29.5t34.5 -64.5q0 -29 -27.5 -45t-58.5 -16q-35 0 -56 29.5t-21 64.5z" />
<glyph unicode="&#xec;" horiz-adv-x="860" d="M-66 121q0 43 46 57l18 6q31 10 84 48t86 71q6 6 52 55.5t72.5 75t73 52t85.5 26.5q80 0 122.5 -57.5t51 -127t25 -127t46.5 -57.5q39 0 119 27l25 8q18 6 24 6q61 0 62 -61q0 -45 -43 -60l-19 -6q-111 -37 -168 -37q-80 0 -123 57.5t-51 127t-24.5 127t-46.5 57.5 q-12 0 -31 -11t-41.5 -33.5t-43 -42t-47 -48.5t-38.5 -41q-111 -111 -191 -137l-36 -13q-12 -4 -27 -4q-62 1 -62 62zM328 1346q0 63 61 63q25 0 98 -61q43 -35 119 -122t117 -169q14 -27 14 -49q0 -61 -61 -62q-35 0 -66 62q-72 141 -221 262q-61 49 -61 76z" />
<glyph unicode="&#xed;" horiz-adv-x="860" d="M-66 121q0 43 46 57l18 6q31 10 84 48t86 71q6 6 52 55.5t72.5 75t73 52t85.5 26.5q80 0 122.5 -57.5t51 -127t25 -127t46.5 -57.5q39 0 119 27l25 8q18 6 24 6q61 0 62 -61q0 -45 -43 -60l-19 -6q-111 -37 -168 -37q-80 0 -123 57.5t-51 127t-24.5 127t-46.5 57.5 q-12 0 -31 -11t-41.5 -33.5t-43 -42t-47 -48.5t-38.5 -41q-111 -111 -191 -137l-36 -13q-12 -4 -27 -4q-62 1 -62 62zM246 1036q0 8 2 15.5t7 15.5t9 13t16.5 18.5t18.5 21.5q188 213 346 277q31 12 51 12q61 0 62 -61q0 -16 -19.5 -35t-42.5 -27q-70 -29 -162 -106.5 t-145 -143.5q-53 -61 -82 -61q-61 0 -61 61z" />
<glyph unicode="&#xee;" horiz-adv-x="860" d="M-66 121q0 43 46 57l18 6q31 10 84 48t86 71q6 6 52 55.5t72.5 75t73 52t85.5 26.5q80 0 122.5 -57.5t51 -127t25 -127t46.5 -57.5q39 0 119 27l25 8q18 6 24 6q61 0 62 -61q0 -45 -43 -60l-19 -6q-111 -37 -168 -37q-80 0 -123 57.5t-51 127t-24.5 127t-46.5 57.5 q-12 0 -31 -11t-41.5 -33.5t-43 -42t-47 -48.5t-38.5 -41q-111 -111 -191 -137l-36 -13q-12 -4 -27 -4q-62 1 -62 62zM88 836q0 31 62 88q18 18 56 55t52 52.5t44 43t43 38.5t38 29.5t40 26t35.5 16.5t40 12t40.5 3q29 0 54 -11t42.5 -27.5t33 -43t24.5 -48t18.5 -54.5 t13.5 -49.5t9 -44t5 -29.5q4 -14 4 -25q0 -61 -59 -61q-51 0 -63 61q-41 209 -82 209q-43 0 -98.5 -45t-204.5 -196l-13 -13q-8 -8 -12 -11t-10 -9l-10 -9q-3 -3 -9 -7.5t-9 -5.5t-7 -3t-8 -3t-8 -1q-62 1 -62 62z" />
<glyph unicode="&#xef;" horiz-adv-x="860" d="M-66 121q0 43 46 57l18 6q63 20 166 150q8 12 59 101t106.5 144.5t121.5 55.5q82 0 133 -51.5t51 -132.5q0 -80 18.5 -150t42.5 -94q61 -61 62 -84q0 -61 -62 -62q-31 0 -86 56q-98 98 -98 334q0 61 -61 61q-23 0 -57 -46t-74.5 -114.5t-61.5 -93.5q-6 -8 -26.5 -32.5 t-28.5 -34t-26.5 -30t-29 -29.5t-27 -22.5t-31.5 -21.5t-30 -12l-36 -13q-12 -4 -27 -4q-62 1 -62 62zM164 1139q0 61 61 61q33 0 68 -29.5t35 -64.5q0 -29 -28 -45.5t-58 -16.5q-35 0 -56.5 30t-21.5 65zM532 1077q0 61 62 62q33 0 67.5 -30t34.5 -65q0 -29 -27.5 -45 t-58.5 -16q-35 0 -56.5 29.5t-21.5 64.5z" />
<glyph unicode="&#xf0;" d="M82 184q0 219 140 353.5t294 134.5q29 0 90.5 -10.5t83.5 -22.5q-29 45 -254 317q-129 -10 -155 -14h-15q-61 0 -61 62q0 55 61 61q2 0 12.5 1t29 3t34.5 4l-178 213q-33 41 -33 62q0 61 64 61q41 0 77 -47q35 -51 220 -277q262 20 348 21q61 0 61 -61.5t-61 -61.5 q-74 0 -254 -14q176 -215 211 -267q47 -76 47 -141q0 -109 -62.5 -216t-151.5 -180t-183.5 -119t-159.5 -46q-92 0 -148.5 51t-56.5 133zM205 184q0 -29 24.5 -45t57.5 -16q49 0 132 43t173 134t123 200q-33 16 -98.5 32.5t-100.5 16.5q-100 0 -205.5 -97.5t-105.5 -267.5z " />
<glyph unicode="&#xf1;" horiz-adv-x="1290" d="M-66 121q0 43 46 57l18 6q49 16 86 78q16 25 38.5 64t33 56t28 45t26.5 38t23.5 28.5t23.5 24.5t22.5 15.5t26.5 12.5t28.5 5t34.5 2q84 0 127 -67.5t50 -147.5t21.5 -147.5t47 -67.5t62.5 51t52.5 112.5t72.5 113t120 51.5q27 0 49 -8.5t37.5 -27t28 -34.5t21.5 -45 t13 -43t10 -43t9 -33q18 -74 36 -74q39 0 119 27l25 8q18 6 24 6q61 0 62 -61q0 -41 -43 -60l-19 -6q-111 -37 -168 -37q-113 0 -153 164q-35 143 -51 144q-31 0 -61 -51.5t-52.5 -113t-73.5 -112.5t-121 -51q-84 0 -127 67.5t-50 147.5t-21.5 147.5t-46.5 67.5 q-27 0 -47.5 -26.5t-85.5 -133.5q-29 -47 -46 -75q-55 -94 -131 -119l-36 -13q-12 -4 -27 -4q-62 1 -62 62zM328 1249q0 27 24 51q72 72 185 72q61 0 128.5 -41t92.5 -41q82 0 100 58q20 61 64 61q61 0 61 -61q0 -20 -4 -33q-23 -66 -81 -107t-140 -41q-61 0 -129 41t-92 41 q-61 0 -101 -39q-23 -23 -47 -22q-61 0 -61 61z" />
<glyph unicode="&#xf2;" d="M82 410q0 61 20.5 122.5t61.5 61.5q61 0 61 -62q0 -14 -6 -38q-14 -57 -14 -84q0 -109 76.5 -177.5t189.5 -68.5q117 0 212 69.5t95 176.5q0 109 -56 156.5t-169 47.5q-66 0 -119 -34q-41 -27 -65 -27q-61 0 -62 61q0 29 62 70q80 53 184 53q164 0 256 -84t92 -243 q0 -156 -131 -262.5t-299 -106.5q-164 0 -276.5 104.5t-112.5 264.5zM328 1346q0 63 61 63q25 0 98 -61q43 -35 119 -122t117 -169q14 -27 14 -49q0 -61 -61 -62q-35 0 -66 62q-72 141 -221 262q-61 49 -61 76z" />
<glyph unicode="&#xf3;" d="M82 410q0 61 20.5 122.5t61.5 61.5q61 0 61 -62q0 -14 -6 -38q-14 -57 -14 -84q0 -109 76.5 -177.5t189.5 -68.5q117 0 212 69.5t95 176.5q0 109 -56 156.5t-169 47.5q-66 0 -119 -34q-41 -27 -65 -27q-61 0 -62 61q0 29 62 70q80 53 184 53q164 0 256 -84t92 -243 q0 -156 -131 -262.5t-299 -106.5q-164 0 -276.5 104.5t-112.5 264.5zM328 1036q0 8 2 15.5t7 15.5t9 13t16.5 18.5t18.5 21.5q188 213 346 277q31 12 51 12q61 0 62 -61q0 -16 -19.5 -35t-42.5 -27q-70 -29 -162 -106.5t-145 -143.5q-53 -61 -82 -61q-61 0 -61 61z" />
<glyph unicode="&#xf4;" d="M82 410q0 61 20.5 122.5t61.5 61.5q61 0 61 -62q0 -14 -6 -38q-14 -57 -14 -84q0 -109 76.5 -177.5t189.5 -68.5q117 0 212 69.5t95 176.5q0 109 -56 156.5t-169 47.5q-66 0 -119 -34q-41 -27 -65 -27q-61 0 -62 61q0 29 62 70q80 53 184 53q164 0 256 -84t92 -243 q0 -156 -131 -262.5t-299 -106.5q-164 0 -276.5 104.5t-112.5 264.5zM164 1044q0 31 61 89q18 18 56 55t52.5 52t44.5 43t43 39t37.5 29.5t40 25.5t36 16.5t40 12.5t39.5 3q29 0 54.5 -11.5t43 -27.5t33 -43t24.5 -48.5t18.5 -54t13.5 -49t9 -44t5 -29.5q4 -14 4 -25 q0 -61 -59 -61q-51 0 -64 61q-41 209 -82 209q-43 0 -97 -45t-206 -197l-12 -12q-8 -8 -12 -11t-11 -9l-9 -10q-3 -3 -9 -7t-9 -5t-7 -3t-8.5 -3t-8.5 -1q-61 0 -61 61z" />
<glyph unicode="&#xf5;" d="M82 410q0 61 20.5 122.5t61.5 61.5q61 0 61 -62q0 -14 -6 -38q-14 -57 -14 -84q0 -109 76.5 -177.5t189.5 -68.5q117 0 212 69.5t95 176.5q0 109 -56 156.5t-169 47.5q-66 0 -119 -34q-41 -27 -65 -27q-61 0 -62 61q0 29 62 70q80 53 184 53q164 0 256 -84t92 -243 q0 -156 -131 -262.5t-299 -106.5q-164 0 -276.5 104.5t-112.5 264.5zM184 1249q0 27 25 51q72 72 184 72q61 0 129 -41t92 -41q82 0 101 58q20 61 63 61q61 0 62 -61q0 -20 -4 -33q-23 -66 -81.5 -107t-140.5 -41q-61 0 -128.5 41t-92.5 41q-61 0 -100 -39q-23 -23 -47 -22 q-62 0 -62 61z" />
<glyph unicode="&#xf6;" d="M82 410q0 61 20.5 122.5t61.5 61.5q61 0 61 -62q0 -14 -6 -38q-14 -57 -14 -84q0 -109 76.5 -177.5t189.5 -68.5q117 0 212 69.5t95 176.5q0 109 -56 156.5t-169 47.5q-66 0 -119 -34q-41 -27 -65 -27q-61 0 -62 61q0 29 62 70q80 53 184 53q164 0 256 -84t92 -243 q0 -156 -131 -262.5t-299 -106.5q-164 0 -276.5 104.5t-112.5 264.5zM205 1221q0 61 61 61q33 0 68 -29.5t35 -64.5q0 -29 -28 -45.5t-58 -16.5q-35 0 -56.5 30t-21.5 65zM573 1159q0 61 62 62q33 0 67.5 -30t34.5 -65q0 -29 -27.5 -45t-58.5 -16q-35 0 -56.5 29.5 t-21.5 64.5z" />
<glyph unicode="&#xf7;" d="M82 635q0 49 61 61q205 41 697 41q61 0 61 -61.5t-61 -61.5q-481 0 -676 -39q-16 -2 -21 -2q-61 1 -61 62zM389 983q0 61 62 61q33 0 67.5 -29.5t34.5 -64.5q0 -29 -27.5 -45t-58.5 -16q-35 0 -56.5 29.5t-21.5 64.5zM430 389q0 61 62 62q33 0 67.5 -30t34.5 -65 q0 -29 -27.5 -45t-58.5 -16q-35 0 -56.5 29.5t-21.5 64.5z" />
<glyph unicode="&#xf8;" d="M82 473q0 172 115.5 321.5t253.5 161.5q66 227 100 396q14 57 63 57q59 0 60 -61q0 -12 -17 -95q-33 -152 -59 -243q16 2 53 2q113 0 181.5 -99.5t68.5 -216.5q0 -209 -141.5 -360.5t-382.5 -151.5q-25 0 -35 2q-109 -305 -119 -387q-2 -16 -18.5 -34.5t-42.5 -18.5 q-61 0 -62 61q0 31 21 107q12 49 100 313q-63 37 -101 102.5t-38 143.5zM205 475q0 -74 57 -125l148 463q-84 -41 -144.5 -136.5t-60.5 -201.5zM383 307q178 2 286.5 112.5t108.5 276.5q0 78 -33.5 135.5t-93.5 57.5q-53 0 -90 -10q-63 -230 -178 -572z" />
<glyph unicode="&#xf9;" d="M82 246q0 90 41 336q10 61 61 61q61 0 62 -61q0 -4 -4 -29q-37 -221 -37 -307q0 -66 21.5 -94.5t80.5 -28.5q121 0 213 229q16 41 30.5 87t24 78t15.5 60.5t8 32.5q18 61 78 62q31 0 45 -12.5t20 -49.5q0 -2 6.5 -50t16.5 -109.5t22 -112.5q43 -174 95 -174q39 0 57 6 l25 8q18 6 24 6q61 0 62 -61q0 -45 -43 -60l-19 -6q-49 -16 -106 -16q-88 0 -134.5 68.5t-78.5 197.5l-13 62q-16 -49 -22 -62q-123 -307 -326 -307q-109 0 -167 66.5t-58 179.5zM492 1346q0 63 61 63q25 0 98 -61q43 -35 119 -122t117 -169q14 -27 14 -49q0 -61 -61 -62 q-35 0 -66 62q-72 141 -221 262q-61 49 -61 76z" />
<glyph unicode="&#xfa;" d="M82 246q0 90 41 336q10 61 61 61q61 0 62 -61q0 -4 -4 -29q-37 -221 -37 -307q0 -66 21.5 -94.5t80.5 -28.5q121 0 213 229q16 41 30.5 87t24 78t15.5 60.5t8 32.5q18 61 78 62q31 0 45 -12.5t20 -49.5q0 -2 6.5 -50t16.5 -109.5t22 -112.5q43 -174 95 -174q39 0 57 6 l25 8q18 6 24 6q61 0 62 -61q0 -45 -43 -60l-19 -6q-49 -16 -106 -16q-88 0 -134.5 68.5t-78.5 197.5l-13 62q-16 -49 -22 -62q-123 -307 -326 -307q-109 0 -167 66.5t-58 179.5zM410 1036q0 8 2 15.5t7 15.5t9 13t16.5 18.5t18.5 21.5q188 213 346 277q31 12 51 12 q61 0 62 -61q0 -16 -19.5 -35t-42.5 -27q-70 -29 -162 -106.5t-145 -143.5q-53 -61 -82 -61q-61 0 -61 61z" />
<glyph unicode="&#xfb;" d="M82 246q0 90 41 336q10 61 61 61q61 0 62 -61q0 -4 -4 -29q-37 -221 -37 -307q0 -66 21.5 -94.5t80.5 -28.5q121 0 213 229q16 41 30.5 87t24 78t15.5 60.5t8 32.5q18 61 78 62q31 0 45 -12.5t20 -49.5q0 -2 6.5 -50t16.5 -109.5t22 -112.5q43 -174 95 -174q39 0 57 6 l25 8q18 6 24 6q61 0 62 -61q0 -45 -43 -60l-19 -6q-49 -16 -106 -16q-88 0 -134.5 68.5t-78.5 197.5l-13 62q-16 -49 -22 -62q-123 -307 -326 -307q-109 0 -167 66.5t-58 179.5zM164 1044q0 31 61 89q18 18 56 55t52.5 52t44.5 43t43 39t37.5 29.5t40 25.5t36 16.5t40 12.5 t39.5 3q29 0 54.5 -11.5t43 -27.5t33 -43t24.5 -48.5t18.5 -54t13.5 -49t9 -44t5 -29.5q4 -14 4 -25q0 -61 -59 -61q-51 0 -64 61q-41 209 -82 209q-43 0 -97 -45t-206 -197l-12 -12q-8 -8 -12 -11t-11 -9l-9 -10q-3 -3 -9 -7t-9 -5t-7 -3t-8.5 -3t-8.5 -1q-61 0 -61 61z " />
<glyph unicode="&#xfc;" d="M82 246q0 90 41 336q10 61 61 61q61 0 62 -61q0 -4 -4 -29q-37 -221 -37 -307q0 -66 21.5 -94.5t80.5 -28.5q121 0 213 229q16 41 30.5 87t24 78t15.5 60.5t8 32.5q18 61 78 62q31 0 45 -12.5t20 -49.5q0 -2 6.5 -50t16.5 -109.5t22 -112.5q43 -174 95 -174q39 0 57 6 l25 8q18 6 24 6q61 0 62 -61q0 -45 -43 -60l-19 -6q-49 -16 -106 -16q-88 0 -134.5 68.5t-78.5 197.5l-13 62q-16 -49 -22 -62q-123 -307 -326 -307q-109 0 -167 66.5t-58 179.5zM225 1221q0 61 62 61q33 0 67.5 -29.5t34.5 -64.5q0 -29 -27.5 -45.5t-58.5 -16.5 q-35 0 -56.5 30t-21.5 65zM594 1159q0 61 61 62q33 0 68 -30t35 -65q0 -29 -28 -45t-58 -16q-35 0 -56.5 29.5t-21.5 64.5z" />
<glyph unicode="&#xfd;" horiz-adv-x="901" d="M82 676q0 61 61 61q55 0 62 -61q6 -57 18 -127q33 -174 72 -275q12 -29 33 -28q133 0 206.5 67.5t161.5 239.5q25 61 62 61q61 0 61 -61q0 -242 -24 -561q-23 -289 -58 -447q-39 -184 -184 -184q-266 0 -266 356q0 98 54 190.5t130 92.5q61 0 61 -61q0 -10 -11 -20.5 t-27.5 -22t-22.5 -19.5q-61 -70 -61 -160q0 -115 29.5 -174t113.5 -59q49 0 68 94q27 121 51 422q18 238 18 307l-10 -14q-10 -14 -15.5 -20.5t-19.5 -23t-25.5 -25.5t-31 -24.5t-36.5 -24.5t-43 -20.5t-52.5 -17.5t-60.5 -10t-68 -4q-111 0 -156 123q-43 113 -70 280 q-10 66 -18 129q-2 11 -2 21zM246 1036q0 8 2 15.5t7 15.5t9 13t16.5 18.5t18.5 21.5q188 213 346 277q31 12 51 12q61 0 62 -61q0 -16 -19.5 -35t-42.5 -27q-70 -29 -162 -106.5t-145 -143.5q-53 -61 -82 -61q-61 0 -61 61z" />
<glyph unicode="&#xfe;" d="M82 -102q0 150 41 360v340q0 221 -21 631q-2 25 -16 84q-4 16 -4 35q0 61 61 61q45 0 62 -61q18 -74 20 -119q20 -410 21 -631q57 94 134 127t238 33q119 0 201 -67.5t82 -178.5q0 -61 -23.5 -111.5t-60.5 -82t-95 -55t-110.5 -36t-127 -19.5t-125 -9t-121.5 -2 q-33 -164 -33 -299q0 -225 35 -435q0 -6 1 -12t2 -9l2 -6q1 -3 1 -5v-4v-5q0 -61 -62 -61q-51 0 -61 57q-41 247 -41 480zM266 319q106 0 184 7.5t159 26t125 58.5t44 101q0 59 -45 91t-115 32q-86 0 -133 -8.5t-92 -40t-73.5 -95t-53.5 -172.5z" />
<glyph unicode="&#xff;" horiz-adv-x="901" d="M82 676q0 61 61 61q55 0 62 -61q6 -57 18 -127q33 -174 72 -275q12 -29 33 -28q133 0 206.5 67.5t161.5 239.5q25 61 62 61q61 0 61 -61q0 -242 -24 -561q-23 -289 -58 -447q-39 -184 -184 -184q-266 0 -266 356q0 98 54 190.5t130 92.5q61 0 61 -61q0 -10 -11 -20.5 t-27.5 -22t-22.5 -19.5q-61 -70 -61 -160q0 -115 29.5 -174t113.5 -59q49 0 68 94q27 121 51 422q18 238 18 307l-10 -14q-10 -14 -15.5 -20.5t-19.5 -23t-25.5 -25.5t-31 -24.5t-36.5 -24.5t-43 -20.5t-52.5 -17.5t-60.5 -10t-68 -4q-111 0 -156 123q-43 113 -70 280 q-10 66 -18 129q-2 11 -2 21zM246 1221q0 61 61 61q33 0 68 -29.5t35 -64.5q0 -29 -28 -45.5t-58 -16.5q-35 0 -56.5 30t-21.5 65zM614 1159q0 61 62 62q33 0 67.5 -30t34.5 -65q0 -29 -27.5 -45t-58.5 -16q-35 0 -56.5 29.5t-21.5 64.5z" />
<glyph unicode="&#x152;" horiz-adv-x="1740" d="M82 637q0 182 66.5 304t218.5 122q39 0 71 -8q78 49 122 74.5t120 48t156 22.5q178 0 290 -80q63 80 179 80q18 0 39.5 -5t37 -10t38 -16.5t32.5 -17.5t33.5 -21.5t30 -19.5t8.5 -6q18 -12 22 -37q2 -4 2 -20.5t-17.5 -36t-45.5 -19.5q-18 0 -85 45t-95 45q-51 0 -82 -30 l-4 -9q0 -8 2 -10q27 -41 30 -53q6 -6 32 -26.5t40 -34.5q4 -4 30.5 -25t44 -38t39 -44t34 -59.5t12.5 -67.5q0 -43 -52.5 -101.5t-114 -106.5t-113.5 -105.5t-52 -98.5q0 -63 103.5 -106t220.5 -43q80 0 221 47l24 8q18 6 25 6q61 0 61 -61q0 -45 -43 -60l-18 -6 q-172 -57 -270 -57q-143 0 -270.5 52t-168.5 155l-75 -70q-160 -137 -383 -137q-221 0 -358.5 184.5t-137.5 452.5zM205 637q0 -227 107.5 -370.5t265.5 -143.5q176 0 299 100q141 117 221 225.5t80 251.5q0 119 -27 193q-33 37 -51 88q-82 98 -264 98q-82 0 -144.5 -24.5 t-142.5 -75.5q51 -61 51 -158q0 -74 -31 -104q-18 -20 -45 -21q-25 0 -44 17.5t-19 42.5q0 12 7 34.5t7 30.5q0 49 -30.5 86t-77.5 37q-162 0 -162 -307zM1298 627q53 49 58 59q-2 41 -56 94q4 -53 5 -75q-1 -37 -7 -78z" />
<glyph unicode="&#x153;" horiz-adv-x="1474" d="M82 342q0 78 82 143q0 100 62.5 176t164.5 76q84 0 169 -30.5t218 -133.5q47 41 136.5 82t170.5 41q150 0 229 -49t79 -135q0 -57 -36 -97t-91.5 -57.5t-98.5 -23.5t-82 -6q-90 0 -143 22q-31 12 -47 35q-6 -72 -45 -147q33 -35 124 -75t193 -40q121 0 263 47l24 8 q18 6 25 6q61 0 61 -61q0 -45 -43 -60l-18 -6q-172 -57 -312 -57q-109 0 -222.5 43t-168.5 100q-115 -143 -262 -143q-182 0 -307 99.5t-125 242.5zM205 346q0 -82 76.5 -152.5t232.5 -70.5q86 0 180 113q-31 72 -30 124q0 55 41 115q-6 6 -39 29.5t-42.5 30t-38 25 t-44 23.5t-42 15t-53 13t-55.5 3q-47 0 -75.5 -38.5t-28.5 -94.5q0 -43 -20.5 -67.5t-41 -38t-20.5 -29.5zM864 485q16 -23 25 -53q10 35 61 35q20 0 37 -4q53 -12 98 -12q70 0 127.5 16t57.5 45t-57.5 45t-127.5 16q-55 0 -120.5 -28.5t-100.5 -59.5z" />
<glyph unicode="&#x178;" d="M82 881q0 61 59 61q23 0 64 -49q8 -8 55 -69.5t77 -91.5t90 -61.5t126 -31.5q57 0 126 43t97 104q27 61 64 62q61 0 61 -62q0 -109 -67 -270l-183 -461q-23 -55 -63 -55q-61 0 -62 61q0 10 15 50l176 450q-76 -45 -164 -45q-45 0 -88 10.5t-76 22.5t-68.5 38.5t-56 43 t-51.5 52.5t-40 48t-35.5 49t-28.5 39q-6 6 -16.5 29t-10.5 33zM246 1221q0 61 61 61q33 0 68 -29.5t35 -64.5q0 -29 -28 -45.5t-58 -16.5q-35 0 -56.5 30t-21.5 65zM614 1159q0 61 62 62q33 0 67.5 -30t34.5 -65q0 -29 -27.5 -45t-58.5 -16q-35 0 -56.5 29.5t-21.5 64.5z " />
<glyph unicode="&#x2c6;" horiz-adv-x="737" d="M82 1126q0 27 61 88l33 33l34 34q7 7 30.5 28.5t33 29t31 22.5t34.5 20t33.5 13.5t39 11.5t39.5 3q49 0 88 -29.5t61.5 -78t33.5 -82t17 -68.5q4 -14 4 -25q0 -61 -59 -61q-51 0 -64 61q-10 49 -32.5 104.5t-48.5 55.5q-43 0 -87.5 -34.5t-134.5 -125.5q-61 -61 -86 -61 q-61 0 -61 61z" />
<glyph unicode="&#x2dc;" horiz-adv-x="819" d="M82 1249q0 25 61 86q74 74 185 74q59 0 146 -39t99 -39q35 0 64 10.5t39 10.5q61 0 61 -62q0 -37 -46 -59.5t-118 -22.5q-45 0 -128 39t-117 39q-59 0 -97 -37q-61 -61 -88 -61q-61 0 -61 61z" />
<glyph unicode="&#x2000;" horiz-adv-x="704" />
<glyph unicode="&#x2001;" horiz-adv-x="1409" />
<glyph unicode="&#x2002;" horiz-adv-x="704" />
<glyph unicode="&#x2003;" horiz-adv-x="1409" />
<glyph unicode="&#x2004;" horiz-adv-x="468" />
<glyph unicode="&#x2005;" horiz-adv-x="352" />
<glyph unicode="&#x2006;" horiz-adv-x="233" />
<glyph unicode="&#x2007;" horiz-adv-x="233" />
<glyph unicode="&#x2008;" horiz-adv-x="176" />
<glyph unicode="&#x2009;" horiz-adv-x="280" />
<glyph unicode="&#x200a;" horiz-adv-x="77" />
<glyph unicode="&#x2010;" d="M164 346q0 43 61 64q123 41 328 41q61 0 246 -21q29 -4 45 -20.5t16 -40.5q0 -61 -61 -62q-4 0 -41 4q-147 16 -205 17q-184 0 -285 -35q-18 -6 -43 -6q-61 0 -61 59z" />
<glyph unicode="&#x2011;" d="M164 346q0 43 61 64q123 41 328 41q61 0 246 -21q29 -4 45 -20.5t16 -40.5q0 -61 -61 -62q-4 0 -41 4q-147 16 -205 17q-184 0 -285 -35q-18 -6 -43 -6q-61 0 -61 59z" />
<glyph unicode="&#x2012;" d="M164 346q0 43 61 64q123 41 328 41q61 0 246 -21q29 -4 45 -20.5t16 -40.5q0 -61 -61 -62q-4 0 -41 4q-147 16 -205 17q-184 0 -285 -35q-18 -6 -43 -6q-61 0 -61 59z" />
<glyph unicode="&#x2013;" horiz-adv-x="1228" d="M82 635q0 29 14.5 42t46.5 19q25 4 161 13.5t360.5 18.5t420.5 9q61 0 61.5 -61.5t-61.5 -61.5q-197 0 -415.5 -9t-350 -18t-155.5 -14h-21q-61 1 -61 62z" />
<glyph unicode="&#x2014;" horiz-adv-x="2457" d="M82 635q0 29 14.5 42t46.5 19q31 6 942.5 23.5t1228.5 17.5q61 0 61.5 -61.5t-61.5 -61.5q-317 0 -1218 -17t-932 -24h-21q-61 1 -61 62z" />
<glyph unicode="&#x2018;" horiz-adv-x="655" d="M82 963q0 20 35 67q160 213 268 322q57 57 86 57q25 0 43 -16.5t18 -44.5q0 -20 -61 -82q-98 -98 -258 -312q-25 -33 -37 -43t-33 -10q-61 1 -61 62z" />
<glyph unicode="&#x2019;" horiz-adv-x="819" d="M246 963q0 20 61 81q53 53 94 113q63 94 88 191q14 61 64 61q61 0 61 -61q0 -8 -6 -33q-31 -119 -108 -230q-49 -70 -106.5 -127t-86.5 -57q-25 0 -43 16.5t-18 45.5z" />
<glyph unicode="&#x201a;" horiz-adv-x="614" d="M123 -430q0 14 8 31q49 90 78 186q37 119 37 213q0 61 61.5 61t61.5 -61q0 -109 -43 -250q-29 -96 -72 -180q-31 -61 -70 -62q-61 1 -61 62z" />
<glyph unicode="&#x201c;" horiz-adv-x="675" d="M82 758l2 20q6 37 15.5 98.5t15.5 95.5t16 80t22.5 72.5t31 52t44 37t58.5 11.5q18 0 34.5 -5.5t28.5 -10.5t25 -17l19 -20q7 -7 17.5 -22t13.5 -20.5t11 -21.5l8 -16q0 86 27 174q10 33 22.5 47t38.5 14q61 0 62 -61q0 -25 -4 -41q-8 -29 -22.5 -157t-14.5 -163 q0 -61 -61 -61q-47 0 -90.5 64.5t-72 129t-42.5 64.5q-12 0 -23.5 -31t-21 -79t-16.5 -94t-13 -89t-8 -51q-12 -61 -62 -62q-61 1 -61 62z" />
<glyph unicode="&#x201d;" horiz-adv-x="634" d="M82 942q0 14 6 51t22.5 136.5t32.5 218.5q4 33 17.5 47t44.5 14q61 0 61 -61q0 -10 -2 -21q-2 -18 -11 -76.5t-19.5 -123t-12.5 -76.5q223 211 271 211q61 0 61 -62q0 -18 -4 -33q-31 -98 -60.5 -180t-41 -116.5t-17.5 -71.5q-12 -61 -61 -62q-61 0 -62 62q0 8 4 24 q16 86 58 195q-43 -43 -78 -68q-100 -70 -148 -69q-61 0 -61 61z" />
<glyph unicode="&#x201e;" horiz-adv-x="634" d="M82 -197q0 14 6 51t22.5 136.5t32.5 218.5q4 33 17.5 47t44.5 14q61 0 61 -61q0 -10 -2 -21q-2 -18 -11 -76.5t-19.5 -123t-12.5 -76.5q223 211 271 211q61 0 61 -62q0 -18 -4 -32q-31 -98 -60.5 -180t-41 -117t-17.5 -72q-12 -61 -61 -61q-61 0 -62 61q0 8 4 25 q16 86 58 194q-43 -43 -78 -67q-100 -70 -148 -70q-61 0 -61 61z" />
<glyph unicode="&#x2022;" d="M328 369q0 80 49 121.5t135 41.5q143 0 143 -122q0 -51 -63.5 -107.5t-140.5 -56.5q-45 0 -84 39t-39 84z" />
<glyph unicode="&#x2026;" d="M82 180q0 61 61 62q76 0 120 -40t44 -79q0 -29 -24.5 -45.5t-57.5 -16.5q-74 0 -108.5 39t-34.5 80zM492 115q0 61 61 61q33 0 67.5 -29.5t34.5 -64.5q0 -29 -27.5 -45.5t-58.5 -16.5q-35 0 -56 30t-21 65zM737 94q0 61 62 62q33 0 67.5 -30t34.5 -65q0 -29 -27.5 -45 t-58.5 -16q-35 0 -56.5 29.5t-21.5 64.5z" />
<glyph unicode="&#x202f;" horiz-adv-x="280" />
<glyph unicode="&#x2039;" horiz-adv-x="737" d="M82 369q0 16 2 30.5t8 28.5t10 22.5t15.5 21.5t15.5 17l17 17l14 14q137 137 143 156q6 25 23.5 43t38.5 18q61 0 61 -61q0 -14 -8 -39q-12 -43 -176 -207q-41 -41 -41 -61q0 -31 41 -47l348 -138q61 -23 61 -61q0 -61 -61 -62q-27 0 -39 7l-309 125q-164 70 -164 176z " />
<glyph unicode="&#x203a;" horiz-adv-x="737" d="M82 676q0 61 61 61q18 0 45 -18q41 -27 142 -76q39 -18 104.5 -60t143 -114t77.5 -121q0 -41 -29.5 -74.5t-75.5 -53t-77 -30t-55 -14.5q-37 -8 -94.5 -41t-90.5 -74q-45 -61 -69 -61q-61 0 -62 61q0 33 31 70q47 57 121 104.5t123 57.5q156 31 155 55q0 27 -93 90.5 t-148 89.5q-111 55 -148 78q-61 39 -61 70z" />
<glyph unicode="&#x205f;" horiz-adv-x="352" />
<glyph unicode="&#x20ac;" horiz-adv-x="1802" d="M61 670q0 31 25 47q6 6 31 14l219 80q6 268 188.5 433t425.5 165q70 0 127.5 -54.5t57.5 -129.5q0 -61 -62 -62q-18 0 -35.5 31t-38 61.5t-49.5 30.5q-193 0 -335 -124t-154 -306q106 35 256.5 67.5t337 64.5t233.5 42q8 2 23 2q61 0 61 -57q0 -53 -57 -66 q-37 -8 -241 -43t-358.5 -69.5t-254.5 -71.5q10 -84 28 -147q137 43 442.5 93t373.5 64q8 2 22 2q61 0 62 -59q0 -51 -58 -64q-33 -6 -342 -57t-442 -90q72 -109 165 -181.5t198.5 -105.5t196.5 -45t204 -12q180 0 327 37q37 10 41 10q61 0 62 -59q0 -49 -58 -64 q-188 -47 -372 -47q-305 0 -521.5 97.5t-367.5 332.5q-25 -8 -66 -21.5t-67 -21.5q-57 -14 -62 -14q-61 0 -61 59q0 27 22 45q8 8 31 17q57 20 152 51q-20 57 -29 137q-20 -6 -78.5 -27.5t-79.5 -27.5q-47 -16 -61 -17q-62 1 -62 60z" />
<glyph unicode="&#x2122;" horiz-adv-x="2048" d="M82 1347.5q0 61.5 61 61.5q594 0 697 -41q61 -25 61 -82q0 -35 -16.5 -69.5t-44.5 -38.5q-410 -63 -410 -97q0 -8 31 -94t31 -164v-295q0 -61 -61.5 -61t-61.5 61v295q0 59 -31 145.5t-31 112.5q0 25 4 41.5t23.5 41t54.5 42t102.5 36t163.5 30.5q-27 2 -249 8t-263 6 q-61 0 -61 61.5zM1004 526q0 176 13 424t36 336q33 123 135 123q43 0 75.5 -27.5t41 -46t20.5 -49.5q23 -66 55.5 -219.5t60 -253.5t54.5 -100q18 0 41 102.5t47.5 235.5t38.5 174q43 123 139 123q98 0 142 -123q31 -78 47 -269.5t16 -365.5q0 -61 -61.5 -61.5t-61.5 61.5 q0 158 -21.5 396.5t-60.5 238.5q-18 0 -40.5 -105.5t-46 -237.5t-40.5 -169q0 -2 -9 -23.5t-16 -34t-22.5 -30t-38 -26.5t-53.5 -9q-98 0 -149 123q-29 70 -62 218t-56.5 251.5t-39.5 103.5q-27 0 -44.5 -287.5t-17.5 -472.5q0 -59 -61 -59q-33 0 -47 19.5t-14 39.5z" />
<glyph unicode="&#xe000;" horiz-adv-x="735" d="M0 735h735v-735h-735v735z" />
<glyph unicode="&#xfb01;" horiz-adv-x="1679" d="M-66 123q0 43 46 57l18 6q37 12 152.5 88t216.5 158q35 385 125 653q84 246 225 246q70 0 120 -34.5t70.5 -88t27.5 -92.5t7 -72q0 -152 -130 -328.5t-327 -346.5q-14 -205 -14 -369q0 -57 4 -184q76 133 203 245.5t246.5 175t213 97.5t132.5 35q53 0 89 -23.5 t54.5 -56.5t31.5 -66t29.5 -56.5t41.5 -23.5q39 0 118 27l25 8q18 6 24 6q61 0 62 -61q0 -45 -43 -60l-19 -6q-111 -37 -167 -37q-53 0 -89 24t-54.5 56.5t-32 65.5t-30 56.5t-40.5 23.5q-18 0 -79 -21.5t-150 -62.5t-184 -111.5t-177 -157t-135 -210t-53 -261.5 q0 -61 -61.5 -61t-61.5 61q0 10 -5.5 108.5t-10.5 235t-5 234.5q0 135 6 264q-211 -158 -295 -186l-36 -12q-12 -4 -27 -5q-62 1 -62 62zM502 551q317 303 317 493q0 31 -5 63t-30.5 66.5t-66.5 34.5q-49 0 -107 -161q-75 -224 -108 -496zM1417 823q0 41 26.5 59.5 t55.5 18.5q98 0 98 -102q0 -35 -26.5 -56.5t-63.5 -21.5t-63.5 33.5t-26.5 68.5z" />
<glyph unicode="&#xfb02;" horiz-adv-x="1802" d="M-66 123q0 43 46 57l18 6q53 18 293 172q-6 39 -6 72q0 356 101 598t249 242q59 0 99 -35t56.5 -88t22.5 -92t6 -72q0 -410 -395 -682q6 -39 27.5 -119t27.5 -104q111 100 335 282.5t296 243.5q-4 90 -4 133q0 272 101.5 472t226.5 200q184 0 184 -303q0 -211 -381 -553 q41 -430 299 -430q80 0 221 47l25 8q18 6 24 6q61 0 62 -61q0 -45 -43 -60l-19 -6q-172 -57 -270 -57q-334 0 -410 459q-35 -29 -274.5 -224.5t-341.5 -291.5q25 -123 25 -189q0 -162 -61.5 -277.5t-166.5 -115.5q-82 0 -133 52t-51 136q0 172 252 428q-6 29 -28.5 116 t-33.5 134q-215 -137 -254 -149l-36 -12q-12 -4 -27 -5q-62 1 -62 62zM246 -451q0 -66 61 -65q43 0 74 89t31 181q0 20 -9 82q-157 -172 -157 -287zM408 438q289 219 288 545q0 59 -16 111.5t-45 52.5q-80 0 -152.5 -213t-74.5 -496zM1229 709q266 246 266 397 q0 180 -61 180q-14 0 -38 -20.5t-52.5 -67.5t-54 -111.5t-43 -163.5t-17.5 -214z" />
<glyph unicode="&#xfb03;" horiz-adv-x="2498" d="M-66 123q0 43 46 57l18 6q104 35 350 213q0 115 6 223.5t24.5 242.5t48.5 232.5t84 166t124 67.5q98 0 161.5 -135t63.5 -274q0 -281 -389 -584l21 -277q6 0 104 -5t234.5 -10t234.5 -5q72 0 109 2q-4 14 -24 82t-27 92.5t-21.5 83.5t-20.5 95t-11 85t-5 92 q0 356 100.5 596t247.5 240q59 0 99 -34t56.5 -87t22.5 -91t6 -71q0 -131 -76.5 -268t-134.5 -194q-49 -49 -75 -50q-61 0 -62 62q0 25 51 76q47 47 111 162.5t64 211.5q0 59 -16.5 109.5t-45.5 50.5q-80 0 -152.5 -214t-72.5 -499q0 -47 6 -97t20.5 -113.5t22.5 -98.5 t30.5 -114.5t28.5 -100.5q383 29 682 129q18 6 29 6q61 0 61 -61q0 -43 -61 -64q-309 -102 -678 -131q23 -117 23 -174q0 -162 -60.5 -277.5t-165.5 -115.5q-55 0 -122 21q-61 18 -62 61q0 61 62 61q2 0 22.5 -5t49 -10t50.5 -5q43 0 73 89t30 181q0 72 -23 166 q-47 -2 -141 -2q-92 0 -216 4t-231.5 10.5t-117.5 6.5l49 -480q0 -10 1 -18t3 -14v-5q0 -61 -61 -61q-55 0 -62 61q0 2 -8 76t-20.5 187.5t-20.5 216.5q-25 -14 -54.5 -37t-49 -36t-31.5 -13q-61 0 -62 61q0 41 62 84q63 45 123 72q-12 156 -17 219q-221 -150 -293 -174 l-36 -12q-12 -4 -27 -5q-62 1 -62 62zM473 496q264 229 264 426q0 90 -35.5 188t-66.5 98q-55 0 -104.5 -204.5t-57.5 -507.5zM2150 307q0 61 61.5 61.5t61.5 -61.5q0 -55 16.5 -109.5t45.5 -54.5q39 0 119 27l24 8q18 6 25 6q61 0 61 -61q0 -45 -43 -60l-18 -6 q-111 -37 -168 -37q-88 0 -136.5 83t-48.5 204zM2236 823q0 41 27 59.5t55 18.5q98 0 99 -102q0 -35 -27 -56.5t-63.5 -21.5t-63.5 33.5t-27 68.5z" />
<glyph unicode="&#xfb04;" horiz-adv-x="2621" d="M-66 123q0 43 46 57l18 6q104 35 350 213q0 115 6 223.5t24.5 242.5t48.5 232.5t84 166t124 67.5q98 0 161.5 -135t63.5 -274q0 -285 -389 -588q6 -135 61 -713q109 154 281 371t301 358q-6 43 -6 80q0 356 99.5 598t246.5 242q59 0 99 -35t56.5 -88t22.5 -92t6 -72 q0 -240 -395 -672q16 -98 51 -235q113 104 347.5 294.5t289.5 235.5q-6 66 -6 131q0 272 101.5 472t226.5 200q53 0 92 -33t57.5 -83t26.5 -97t8 -90q0 -211 -375 -547q33 -201 123 -318.5t170 -117.5t221 47l25 8q18 6 25 6q61 0 61 -61q0 -45 -43 -60l-18 -6 q-172 -57 -271 -57q-125 0 -238.5 127t-162.5 340q-68 -57 -297.5 -244.5t-331.5 -281.5q27 -117 27 -187q0 -162 -60.5 -277.5t-165.5 -115.5q-90 0 -137 53.5t-47 134.5q0 174 248 426q-8 31 -16.5 68t-17.5 83t-15 71q-166 -193 -359.5 -449t-228.5 -326q0 -61 -61 -61 q-55 0 -62 61q-68 686 -78 830q-221 -150 -293 -174l-36 -12q-12 -4 -27 -5q-62 1 -62 62zM473 496q98 74 181 197.5t83 228.5q0 90 -35.5 188t-66.5 98q-55 0 -104.5 -204.5t-57.5 -507.5zM1065 -451q0 -66 61 -65q43 0 73 89t30 181q0 18 -8 80q-156 -166 -156 -285z M1231 481q285 332 285 502q0 59 -16.5 111.5t-45.5 52.5q-76 0 -145.5 -198t-77.5 -468zM2048 709q266 246 266 397q0 59 -16.5 119.5t-44.5 60.5q-14 0 -38 -20.5t-52.5 -65.5t-54 -106.5t-43 -155.5t-17.5 -201v-28z" />
</font>
</defs>
</svg>
